<svg width="20" height="20" viewBox="0 0 20 20" fill="none" xmlns="http://www.w3.org/2000/svg">
<path d="M15.5261 18.658C14.7341 18.892 13.7981 19 12.7001 19H7.30012C6.20212 19 5.26612 18.892 4.47412 18.658C4.67212 16.318 7.07512 14.473 10.0001 14.473C12.9251 14.473 15.3281 16.318 15.5261 18.658Z" stroke="#FF7A2F" stroke-width="1.5" stroke-linecap="round" stroke-linejoin="round"/>
<path d="M12.7 1H7.3C2.8 1 1 2.8 1 7.3V12.7C1 16.102 2.026 17.965 4.474 18.658C4.672 16.318 7.075 14.473 10 14.473C12.925 14.473 15.328 16.318 15.526 18.658C17.974 17.965 19 16.102 19 12.7V7.3C19 2.8 17.2 1 12.7 1ZM10 11.953C8.218 11.953 6.778 10.504 6.778 8.72202C6.778 6.94002 8.218 5.5 10 5.5C11.782 5.5 13.222 6.94002 13.222 8.72202C13.222 10.504 11.782 11.953 10 11.953Z" stroke="#FF7A2F" stroke-width="1.5" stroke-linecap="round" stroke-linejoin="round"/>
<path d="M13.222 8.72202C13.222 10.504 11.782 11.953 9.99996 11.953C8.21796 11.953 6.77795 10.504 6.77795 8.72202C6.77795 6.94002 8.21796 5.5 9.99996 5.5C11.782 5.5 13.222 6.94002 13.222 8.72202Z" stroke="#FF7A2F" stroke-width="1.5" stroke-linecap="round" stroke-linejoin="round"/>
</svg>
