<svg width="16" height="23" viewBox="0 0 16 23" fill="none" xmlns="http://www.w3.org/2000/svg">
<path d="M15 6.25V16.75C15 20.95 14.125 22 10.625 22H5.375C1.875 22 1 20.95 1 16.75V6.25C1 2.05 1.875 1 5.375 1H10.625C14.125 1 15 2.05 15 6.25Z" stroke="#2B2A2A" stroke-linecap="round" stroke-linejoin="round"/>
<path d="M9.5001 3.97501H6.1001" stroke="#FF7A2F" stroke-linecap="round" stroke-linejoin="round"/>
<path d="M7.79992 18.535C8.52756 18.535 9.11742 17.9451 9.11742 17.2175C9.11742 16.4899 8.52756 15.9 7.79992 15.9C7.07229 15.9 6.48242 16.4899 6.48242 17.2175C6.48242 17.9451 7.07229 18.535 7.79992 18.535Z" stroke="#FF7A2F" stroke-linecap="round" stroke-linejoin="round"/>
</svg>
