<svg width="189" height="150" viewBox="0 0 189 150" fill="none" xmlns="http://www.w3.org/2000/svg">
<path d="M4.46094 37.3145L5.8657 92.5546H43.7254L62.5106 88.8912L71.256 83.8231L89.449 67.1588L82.5767 44.7652L30.5592 32.7697L4.46094 37.3145Z" fill="white"/>
<g style="mix-blend-mode:multiply">
<mask id="mask0_422_25" style="mask-type:luminance" maskUnits="userSpaceOnUse" x="84" y="0" width="105" height="118">
<path d="M188.972 0H84.1797V117.422H188.972V0Z" fill="white"/>
</mask>
<g mask="url(#mask0_422_25)">
<path d="M91.3986 48.3276L171.484 2.3423C181.097 -3.18034 188.974 1.37825 188.974 12.4649V105.014C188.974 116.1 181.124 120.618 171.539 115.054L124.975 88.019L120.32 85.3196L91.3435 68.49C81.7581 62.9261 81.7856 53.8502 91.3848 48.3276" fill="#70BA82"/>
</g>
</g>
<path d="M14.9505 58.5854H14.7577C13.587 58.5854 12.5817 58.9848 11.7415 59.7836C10.9014 60.5824 10.4883 61.5602 10.4883 62.7033V64.0117C10.4883 65.1272 10.9014 66.0913 11.7415 66.8901C12.5817 67.6889 13.587 68.0882 14.7577 68.0882H14.9505C16.1211 68.0882 17.1265 67.6889 17.9666 66.8901C18.8067 66.0913 19.2198 65.1272 19.2198 64.0117V62.7033C19.2198 61.5602 18.8067 60.5824 17.9666 59.7836C17.1265 58.9848 16.1211 58.5854 14.9505 58.5854Z" fill="#00ABBD"/>
<path d="M52.7688 58.5854H52.576C51.4054 58.5854 50.4 58.9848 49.5599 59.7836C48.7198 60.5824 48.3066 61.5602 48.3066 62.7033V64.0117C48.3066 65.1272 48.7336 66.0913 49.5599 66.8901C50.4 67.6889 51.4054 68.0882 52.576 68.0882H52.7688C53.9395 68.0882 54.9448 67.6889 55.7849 66.8901C56.625 66.0913 57.0382 65.1272 57.0382 64.0117V62.7033C57.0382 61.5602 56.625 60.5824 55.7849 59.7836C54.9448 58.9848 53.9395 58.5854 52.7688 58.5854Z" fill="#00ABBD"/>
<path d="M97.5758 48.3272L17.4907 2.34188C7.86391 -3.16699 0 1.37783 0 12.4644V105C0 116.086 7.85014 120.604 17.4356 115.04L63.9993 88.0048V54.621C63.9993 52.2798 64.8669 50.269 66.6022 48.6026C68.3375 46.9362 70.4447 46.0961 72.9099 46.0961H73.1027C75.5679 46.0961 77.675 46.9224 79.4103 48.6026C81.1456 50.269 82.0133 52.2798 82.0133 54.621V63.7658C82.0133 66.107 81.1456 68.1178 79.4103 69.7842C77.675 71.4506 75.5679 72.2907 73.1027 72.2907H72.9099C71.4913 72.2907 70.1417 71.974 68.8746 71.3405C68.7094 71.2854 68.6405 71.3267 68.6405 71.4782V85.3054L97.6171 68.4759C107.203 62.9119 107.189 53.836 97.5758 48.3272ZM23.8672 64.0137C23.8672 66.3687 22.9858 68.3794 21.2505 70.0321C19.5152 71.6985 17.408 72.5249 14.9428 72.5249H14.75C12.2848 72.5249 10.1776 71.6985 8.44234 70.0459C6.70705 68.3932 5.8394 66.3825 5.8394 64.0412V62.7329C5.8394 60.3778 6.70705 58.3808 8.44234 56.7006C10.1776 55.0342 12.2848 54.1941 14.75 54.1941H14.9428C16.3613 54.1941 17.711 54.5109 18.9781 55.1444C19.1295 55.1995 19.2122 55.1444 19.2122 55.0067V54.8276C19.2122 53.6983 18.799 52.748 17.9589 51.9355C17.1188 51.1229 16.1134 50.7235 14.9428 50.7235H14.75C13.5794 50.7235 12.574 51.1367 11.7063 51.963C11.2656 52.4037 10.7285 52.6103 10.095 52.6103C9.43394 52.6103 8.86928 52.39 8.4148 51.9492C7.96032 51.5085 7.72619 50.9852 7.72619 50.3792C7.72619 49.7732 7.96032 49.2224 8.44234 48.7954C10.1776 47.129 12.2848 46.3027 14.75 46.3027H14.9428C17.408 46.3027 19.5152 47.129 21.2505 48.7954C22.9858 50.4481 23.8672 52.4588 23.8672 54.8139V64.0412V64.0137ZM32.2269 55.9156L37.722 59.0832C40.1872 60.5018 41.4267 62.5538 41.4267 65.2532C41.4267 65.9418 41.3303 66.6166 41.1375 67.2777C40.6968 68.8752 39.7878 70.1561 38.4244 71.1339C37.0609 72.1117 35.5184 72.5937 33.8107 72.5937H33.673C30.7533 72.5937 28.3844 71.4782 26.5803 69.2609C26.2635 68.8752 26.0983 68.4208 26.0983 67.9112C26.0983 67.1813 26.4013 66.6028 27.0072 66.1484C27.4204 65.8454 27.9024 65.6939 28.4395 65.6939C29.197 65.6939 29.8168 65.9831 30.2988 66.5477C31.1527 67.5944 32.282 68.1316 33.6867 68.1316H33.8382C34.6921 68.1316 35.3945 67.8561 35.9591 67.2914C36.51 66.7406 36.7855 66.0519 36.7855 65.2394C36.7855 64.1927 36.2897 63.3939 35.3118 62.8568L29.8581 59.703C27.3515 58.2844 26.112 56.2324 26.112 53.533C26.112 52.8444 26.2084 52.1558 26.4013 51.5085C26.8695 49.911 27.7785 48.6301 29.1144 47.6523C30.4503 46.6745 31.9928 46.1925 33.728 46.1925H33.8658C36.7992 46.1925 39.1681 47.3218 40.9584 49.5667C41.2752 49.9936 41.4267 50.4343 41.4267 50.9163C41.4267 51.6738 41.1099 52.2522 40.4764 52.6792C40.077 52.9822 39.6088 53.1337 39.0992 53.1337C38.3004 53.1337 37.6669 52.8444 37.1986 52.2798C36.3448 51.1918 35.2154 50.6547 33.8382 50.6547H33.6867C32.8329 50.6547 32.1305 50.9301 31.5796 51.4948C31.0287 52.0457 30.7533 52.7343 30.7533 53.5468C30.7533 54.5935 31.2491 55.3923 32.2269 55.9294M61.7269 64.0274C61.7269 66.3825 60.8592 68.3932 59.1102 70.0459C57.3749 71.7123 55.2677 72.5386 52.8025 72.5386H52.6097C50.1445 72.5386 48.0373 71.7123 46.302 70.0597C44.5667 68.407 43.6991 66.3963 43.6991 64.055V62.7466C43.6991 60.3916 44.5667 58.3946 46.302 56.7144C48.0373 55.048 50.1445 54.2079 52.6097 54.2079H52.8025C54.2348 54.2079 55.5707 54.5246 56.8378 55.1582C57.003 55.2132 57.0719 55.1582 57.0719 55.0204V54.8414C57.0719 53.7121 56.6449 52.7618 55.8186 51.9492C54.9785 51.1367 53.9731 50.7373 52.8025 50.7373H52.6097C51.4391 50.7373 50.4199 51.1505 49.566 51.9768C49.1253 52.4175 48.5882 52.6241 47.9547 52.6241C47.2936 52.6241 46.729 52.4037 46.2745 51.963C45.82 51.5223 45.5859 50.999 45.5859 50.393C45.5859 49.787 45.82 49.2361 46.302 48.8092C48.0373 47.1428 50.1445 46.3164 52.6097 46.3164H52.8025C55.2677 46.3164 57.3749 47.1428 59.1102 48.8092C60.8455 50.4618 61.7269 52.4726 61.7269 54.8276V64.055V64.0274Z" fill="#00ABBD"/>
<path d="M72.8944 67.8712H73.0872C74.2578 67.8712 75.2632 67.4719 76.0895 66.6731C76.9296 65.8743 77.3566 64.8965 77.3566 63.7671V54.5949C77.3566 53.4793 76.9296 52.529 76.0895 51.7165C75.2494 50.9177 74.244 50.5183 73.0872 50.5183H72.8944C71.7237 50.5183 70.7184 50.9177 69.8783 51.7165C69.0382 52.5153 68.625 53.4793 68.625 54.5949V63.7671C68.625 64.9102 69.0382 65.8743 69.8783 66.6731C70.7184 67.4719 71.7237 67.8712 72.8944 67.8712Z" fill="#00ABBD"/>
<path d="M99.2061 104.031C99.2061 105.188 98.2696 106.11 97.1265 106.11C95.9834 106.11 95.0469 105.174 95.0469 104.031C95.0469 102.888 95.9696 101.951 97.1265 101.951C98.2833 101.951 99.2061 102.888 99.2061 104.031Z" fill="#A8CE6A"/>
<path d="M85.1919 94.1205C85.1919 95.9935 83.677 97.5085 81.804 97.5085C79.931 97.5085 78.416 95.9935 78.416 94.1205C78.416 92.2475 79.931 90.7325 81.804 90.7325C83.677 90.7325 85.1919 92.2475 85.1919 94.1205Z" fill="#A8CE6A"/>
<path d="M105.201 89.7423C105.201 92.1663 103.245 94.1219 100.821 94.1219C98.3971 94.1219 96.4414 92.1663 96.4414 89.7423C96.4414 87.3184 98.3971 85.3628 100.821 85.3628C103.245 85.3628 105.201 87.3184 105.201 89.7423Z" fill="#A8CE6A"/>
<path d="M87.2675 16.833C87.2675 19.8629 84.8023 22.3281 81.7724 22.3281C78.7426 22.3281 76.2773 19.8766 76.2773 16.833C76.2773 13.7893 78.7426 11.3379 81.7724 11.3379C84.8023 11.3379 87.2675 13.8031 87.2675 16.833Z" fill="#34C1CF"/>
<path d="M94.4322 31.2556C94.4322 33.1286 92.9172 34.6436 91.0442 34.6436C89.1712 34.6436 87.6562 33.1286 87.6562 31.2556C87.6562 29.3826 89.1712 27.8677 91.0442 27.8677C92.9172 27.8677 94.4322 29.3826 94.4322 31.2556Z" fill="#34C1CF"/>
<path d="M109.85 20.2316C109.85 22.1046 108.335 23.6195 106.462 23.6195C104.589 23.6195 103.074 22.1046 103.074 20.2316C103.074 18.3586 104.589 16.8436 106.462 16.8436C108.335 16.8436 109.85 18.3586 109.85 20.2316Z" fill="#34C1CF"/>
<path d="M37.0107 141.613C36.1293 140.869 35.6886 139.946 35.6886 138.844C35.6886 137.743 36.1431 136.779 37.0658 135.98C37.9886 135.181 39.2418 134.768 40.8256 134.768C42.2579 134.768 43.5663 135.181 44.7231 136.021C45.2465 136.434 45.6597 136.847 45.9764 137.247L44.1723 138.362C43.3184 137.261 42.2028 136.71 40.8256 136.71C39.8065 136.71 39.049 136.93 38.5532 137.357C38.0574 137.784 37.8095 138.28 37.8095 138.831C37.8095 139.381 38.0987 139.864 38.6634 140.249C39.228 140.635 40.0544 140.938 41.1148 141.158C42.9052 141.392 44.2824 141.888 45.2327 142.659C46.183 143.431 46.665 144.395 46.665 145.565C46.665 146.846 46.1417 147.906 45.0812 148.747C44.0208 149.573 42.6573 150 41.0047 150C39.4622 150 38.1951 149.587 37.2035 148.76C36.4874 148.223 35.9227 147.521 35.5371 146.667L37.3826 146.061C38.3191 147.383 39.531 148.044 41.0047 148.044C42.1202 148.044 42.9879 147.824 43.6076 147.383C44.2273 146.942 44.5441 146.392 44.5441 145.744C44.5441 144.959 44.2273 144.381 43.5938 143.995C42.9603 143.61 41.8999 143.307 40.4262 143.086C39.0352 142.838 37.8922 142.343 37.0107 141.613Z" fill="#231F20"/>
<path d="M60.8132 134.954L55.3319 141.482L60.9922 149.814H58.4444L53.9271 143.149L52.1092 145.325V149.814H49.9883V134.954H52.1092V142.143L58.045 134.954H60.8132Z" fill="#231F20"/>
<path d="M65.9295 134.954H63.8086V149.828H65.9295V134.954Z" fill="#231F20"/>
<path d="M70.207 149.828V134.954H72.3279V147.886H79.0625V149.828H70.207Z" fill="#231F20"/>
<path d="M80.8184 149.828V134.954H82.953V147.886H89.6739V149.828H80.8184Z" fill="#231F20"/>
<path d="M101.324 144.168V149.828H99.2031V134.954H105.222C106.489 134.954 107.563 135.409 108.472 136.304C109.381 137.213 109.821 138.287 109.821 139.554C109.821 140.821 109.367 141.895 108.472 142.804C107.563 143.699 106.489 144.154 105.222 144.154H101.324V144.168ZM101.324 136.91V142.226H105.043C105.828 142.226 106.475 141.95 106.971 141.413C107.466 140.862 107.701 140.256 107.701 139.568C107.701 138.879 107.453 138.273 106.971 137.722C106.475 137.171 105.841 136.91 105.043 136.91H101.324Z" fill="#231F20"/>
<path d="M118.92 134.954L125.406 149.828H123.065L121.523 146.289H114.499L112.956 149.828H110.643L117.088 134.954H118.933H118.92ZM120.696 144.333L118.011 138.177L115.339 144.333H120.71H120.696Z" fill="#231F20"/>
<path d="M137.84 147.259C137.923 148.182 138.074 149.05 138.281 149.876H136.215C135.967 149.449 135.802 148.705 135.719 147.645C135.664 146.419 135.444 145.524 135.031 144.973C134.618 144.422 133.846 144.147 132.731 144.147H129.701V149.807H127.58V134.933H133.599C134.866 134.933 135.954 135.388 136.849 136.283C137.758 137.192 138.198 138.266 138.198 139.533C138.198 141.323 137.413 142.549 135.83 143.21C137.11 143.885 137.771 145.221 137.854 147.232M129.715 136.875V142.191H132.896C134.039 142.191 134.852 141.916 135.348 141.378C135.843 140.828 136.078 140.222 136.078 139.533C136.078 138.844 135.83 138.238 135.348 137.688C134.852 137.137 134.163 136.875 133.254 136.875H129.715Z" fill="#231F20"/>
<path d="M152.573 134.954L147.078 141.482L152.752 149.814H150.204L145.687 143.149L143.855 145.325V149.814H141.734V134.954H143.855V142.143L149.791 134.954H152.573Z" fill="#231F20"/>
<path d="M45.4167 125.629L47.1107 126.607C46.8077 127.089 46.5323 127.461 46.3119 127.722C45.0862 128.92 43.6126 129.513 41.891 129.513C40.1695 129.513 38.6959 128.893 37.4839 127.64C36.272 126.4 35.666 124.665 35.666 122.461C35.666 120.258 36.272 118.522 37.4839 117.283C38.6959 116.043 40.1695 115.41 41.891 115.41C43.6126 115.41 45.0862 116.002 46.3119 117.2C46.5047 117.421 46.7526 117.751 47.0694 118.178L45.3616 119.197C44.5491 117.875 43.3784 117.214 41.891 117.214C40.7204 117.214 39.715 117.669 38.8887 118.578C38.0486 119.486 37.6354 120.781 37.6354 122.447C37.6354 124.114 38.0486 125.409 38.8887 126.331C39.7288 127.24 40.7342 127.695 41.891 127.695C43.3922 127.695 44.5628 127.006 45.4305 125.615" fill="#231F20"/>
<path d="M59.7337 117.283C60.9456 118.522 61.5516 120.258 61.5516 122.461C61.5516 124.665 60.9456 126.4 59.7337 127.64C58.5217 128.893 57.0481 129.513 55.3266 129.513C53.6051 129.513 52.1314 128.893 50.9195 127.64C49.7075 126.4 49.1016 124.665 49.1016 122.461C49.1016 120.258 49.7075 118.522 50.9195 117.283C52.1314 116.043 53.6051 115.41 55.3266 115.41C57.0481 115.41 58.5217 116.03 59.7337 117.283ZM55.3266 117.214C54.156 117.214 53.1506 117.669 52.3105 118.578C51.4704 119.486 51.0572 120.781 51.0572 122.461C51.0572 124.141 51.4704 125.422 52.3105 126.331C53.1506 127.24 54.156 127.695 55.3266 127.695C56.4972 127.695 57.5026 127.24 58.3289 126.331C59.169 125.422 59.5822 124.128 59.5822 122.461C59.5822 120.795 59.169 119.5 58.3289 118.578C57.4888 117.669 56.4972 117.214 55.3266 117.214Z" fill="#231F20"/>
<path d="M66.8249 119.456V129.344H64.8555V115.572H67.059L71.7416 124.937L76.4792 115.572H78.6139V129.344H76.6445V119.538L72.499 127.857H71.0529L66.8249 119.456Z" fill="#231F20"/>
<path d="M84.5025 119.456V129.344H82.5469V115.572H84.7367L89.433 124.937L94.1706 115.572H96.2915V129.344H94.3221V119.538L90.1767 127.857H88.7444L84.5025 119.456Z" fill="#231F20"/>
<path d="M108.377 124.262V115.572H110.346V124.262C110.346 125.708 109.836 126.934 108.803 127.967C107.771 129 106.545 129.509 105.099 129.509C103.653 129.509 102.427 129 101.394 127.967C100.375 126.934 99.8516 125.708 99.8516 124.262V115.572H101.821V124.262C101.821 125.171 102.11 125.97 102.702 126.659C103.281 127.347 104.093 127.705 105.099 127.705C106.104 127.705 106.917 127.361 107.495 126.659C108.087 125.97 108.377 125.171 108.377 124.262Z" fill="#231F20"/>
<path d="M114.023 129.344V115.572H116.461L123.196 126.356V115.572H125.165V129.344H122.755L115.979 118.506V129.344H114.023Z" fill="#231F20"/>
<path d="M130.989 115.572H129.02V129.344H130.989V115.572Z" fill="#231F20"/>
<path d="M142.868 115.572V117.376H138.584V129.344H136.615V117.376H132.359V115.572H142.868Z" fill="#231F20"/>
<path d="M146.619 129.344V125.075L142.336 115.572H144.471L147.624 122.789L150.765 115.572H152.941L148.589 125.116V129.344H146.619Z" fill="#231F20"/>
<path d="M117.686 48.9588C119.559 47.1822 121.804 46.287 124.462 46.287H124.669C127.313 46.287 129.572 47.1822 131.445 48.9726C131.954 49.427 132.216 49.9917 132.216 50.6803C132.216 51.3689 131.968 51.8923 131.472 52.3605C130.977 52.8288 130.371 53.0629 129.655 53.0629C128.938 53.0629 128.401 52.8288 127.919 52.3605C127.01 51.4653 125.908 51.0246 124.655 51.0246H124.449C123.195 51.0246 122.121 51.4516 121.212 52.3192C120.317 53.1868 119.862 54.2198 119.862 55.4179V58.9987V59.825V63.4058C119.862 64.6178 120.303 65.6507 121.212 66.5045C122.107 67.3722 123.195 67.7991 124.449 67.7991H124.655C125.908 67.7991 126.996 67.3584 127.919 66.4632C128.401 65.995 128.966 65.7608 129.655 65.7608C130.371 65.7608 130.977 65.995 131.472 66.4632C131.968 66.9315 132.216 67.4961 132.216 68.1434C132.216 68.7907 131.954 69.3967 131.445 69.8512C129.572 71.6416 127.313 72.5367 124.669 72.5367H124.462C121.818 72.5367 119.559 71.6416 117.686 69.8649C115.827 68.0883 114.877 65.9261 114.877 63.4058V55.4042C114.877 52.8839 115.813 50.7354 117.686 48.945" fill="white"/>
<path d="M141.476 56.0101L146.971 59.1777C149.437 60.5963 150.676 62.6483 150.676 65.3477C150.676 66.0363 150.58 66.7111 150.387 67.3722C149.946 68.956 149.037 70.2506 147.674 71.2284C146.31 72.2062 144.768 72.6882 143.06 72.6882H142.922C140.003 72.6882 137.634 71.5865 135.83 69.3554C135.513 68.9698 135.348 68.5153 135.348 68.0057C135.348 67.2895 135.651 66.6973 136.257 66.2429C136.67 65.9399 137.138 65.7884 137.689 65.7884C138.446 65.7884 139.066 66.0776 139.548 66.6423C140.402 67.6889 141.531 68.2261 142.936 68.2261H143.074C143.928 68.2261 144.644 67.9506 145.195 67.3997C145.746 66.8351 146.021 66.1602 146.021 65.3477C146.021 64.301 145.525 63.5022 144.547 62.9513L139.094 59.7975C136.601 58.3927 135.348 56.3269 135.348 53.6276C135.348 52.9389 135.444 52.2641 135.637 51.603C136.105 50.0055 137.014 48.7247 138.35 47.7468C139.686 46.769 141.228 46.287 142.964 46.287H143.115C146.049 46.287 148.417 47.4163 150.208 49.6612C150.525 50.0881 150.676 50.5288 150.676 51.0108C150.676 51.7545 150.359 52.3467 149.726 52.7737C149.313 53.0767 148.858 53.2282 148.349 53.2282C147.55 53.2282 146.916 52.9389 146.448 52.3743C145.594 51.2863 144.465 50.7492 143.074 50.7492H142.936C142.082 50.7492 141.38 51.0246 140.829 51.5893C140.278 52.1402 140.003 52.8288 140.003 53.6413C140.003 54.688 140.498 55.4868 141.476 56.0239" fill="white"/>
<path d="M168.948 48.7683C167.213 47.1156 165.106 46.2755 162.641 46.2755H162.448C162.324 46.2755 162.2 46.2755 162.062 46.2893C159.762 46.3719 157.779 47.1845 156.14 48.7545C154.405 50.4072 153.523 52.4179 153.523 54.7729V64.0003C153.523 64.0829 153.523 64.138 153.523 64.2207V104.546L158.165 107.245V71.5061C159.445 72.181 160.864 72.5115 162.434 72.5115H162.627C162.765 72.5115 162.889 72.5115 163.012 72.4977C165.312 72.4151 167.296 71.5888 168.934 70.0325C170.67 68.3798 171.551 66.3691 171.551 64.0141V54.7867C171.551 52.4317 170.684 50.4347 168.934 48.7683M166.896 63.9314C166.896 65.0745 166.469 66.0386 165.643 66.8374C164.803 67.6362 163.797 68.0355 162.627 68.0355H162.434C161.263 68.0355 160.258 67.6362 159.418 66.8374C158.578 66.0386 158.165 65.0608 158.165 63.9314V54.7592C158.165 53.6436 158.578 52.6933 159.418 51.8808C160.258 51.082 161.263 50.6826 162.434 50.6826H162.627C163.797 50.6826 164.803 51.082 165.643 51.8808C166.483 52.6796 166.896 53.6436 166.896 54.7592V63.9314Z" fill="white"/>
</svg>
