<svg width="11" height="11" viewBox="0 0 11 11" fill="none" xmlns="http://www.w3.org/2000/svg">
<path d="M0.817315 8.8H0.87678L3.74569 8.17567C3.80157 8.16637 3.85335 8.14048 3.89433 8.10136L8.75508 3.24057C9.11017 2.88625 9.30828 2.40433 9.30509 1.90275C9.30575 1.39727 9.10829 0.911677 8.75508 0.550051C8.4008 0.194969 7.91888 -0.00314339 7.41727 7.17001e-05C6.91247 -0.00439528 6.42827 0.200033 6.07945 0.564932L1.23351 5.42569C1.19078 5.46009 1.15962 5.50678 1.14432 5.55947L0.520019 8.42838C0.502976 8.53138 0.536094 8.63631 0.609216 8.71083C0.664101 8.76682 0.738901 8.79889 0.817315 8.8ZM7.41727 0.594664C8.1315 0.594607 8.71053 1.17358 8.71059 1.88781C8.71059 1.89279 8.71056 1.89777 8.7105 1.90275C8.71537 2.24301 8.58113 2.57052 8.33889 2.80949L6.51053 0.966249C6.7514 0.726881 7.07766 0.593156 7.41727 0.594664ZM6.0943 1.39736L7.92266 3.22572L3.6862 7.4473L1.85784 5.63379L6.0943 1.39736ZM1.62001 6.22841L3.09161 7.70001L1.20378 8.11624L1.62001 6.22841Z" fill="#2B2A2A"/>
<path d="M10.2567 10.4053H0.297296C0.133099 10.4053 0 10.5384 0 10.7026C0 10.8668 0.133099 10.9999 0.297296 10.9999H10.2567C10.4209 10.9999 10.554 10.8668 10.554 10.7026C10.554 10.5384 10.4209 10.4053 10.2567 10.4053Z" fill="#2B2A2A"/>
</svg>
