<svg width="16" height="22" viewBox="0 0 16 22" fill="none" xmlns="http://www.w3.org/2000/svg">
<path d="M14.3333 6V16C14.3333 20 13.5 21 10.1667 21H5.16667C1.83333 21 1 20 1 16V6C1 2 1.83333 1 5.16667 1H10.1667C13.5 1 14.3333 2 14.3333 6Z" stroke="#F26F22" stroke-width="1.5" stroke-linecap="round" stroke-linejoin="round"/>
<path d="M9.09527 3.83334H5.85718" stroke="#F26F22" stroke-width="1.5" stroke-linecap="round" stroke-linejoin="round"/>
<path d="M7.47608 17.7C8.16906 17.7 8.73084 17.1382 8.73084 16.4452C8.73084 15.7522 8.16906 15.1905 7.47608 15.1905C6.78309 15.1905 6.22131 15.7522 6.22131 16.4452C6.22131 17.1382 6.78309 17.7 7.47608 17.7Z" stroke="#F26F22" stroke-width="1.5" stroke-linecap="round" stroke-linejoin="round"/>
</svg>
