<svg width="16" height="20" viewBox="0 0 16 20" fill="none" xmlns="http://www.w3.org/2000/svg">
<path d="M13.8649 3.10584C13.6457 3.10584 13.4389 3.01164 13.2948 2.84548C13.1465 2.67446 13.083 2.44837 13.1207 2.22514L13.4963 0H1.24097C0.555611 0 0 0.555611 0 1.24097V18.6086C0 19.2939 0.555611 19.8495 1.24097 19.8495H14.7379C15.4233 19.8495 15.9789 19.2939 15.9789 18.6086V3.05271L13.8843 3.10559C13.8778 3.10575 13.8713 3.10584 13.8649 3.10584Z" fill="#E6E6E6"/>
<path d="M15.2927 1.81398L14.946 1.41414L13.7196 0H13.6543L13.409 1.45297L13.2744 2.25095C13.2115 2.62307 13.5038 2.9601 13.8811 2.95056L14.6901 2.93013L15.9796 2.89756V2.72704L15.2927 1.81398Z" fill="#E6E6E6"/>
<path d="M0 14.5754H15.9789V18.5253C15.9789 19.3392 15.3124 20 14.4916 20H1.48728C0.666418 20 0 19.3392 0 18.5253V14.5754Z" fill="#C62C2C"/>
<path d="M4.17244 15.6734C4.39575 15.6337 4.69846 15.6039 5.10535 15.6039C5.55193 15.6039 5.87449 15.6982 6.0879 15.8769C6.28639 16.0406 6.41539 16.3036 6.41539 16.6163C6.41539 16.9289 6.31615 17.1919 6.13253 17.3705C5.88444 17.6137 5.5073 17.7328 5.07555 17.7328C4.96143 17.7328 4.86219 17.7278 4.77782 17.708V18.9733H4.1724V15.6734H4.17244ZM4.77786 17.2266C4.85725 17.2514 4.95153 17.2564 5.0756 17.2564C5.53213 17.2564 5.81001 17.0281 5.81001 16.6411C5.81001 16.254 5.55198 16.0754 5.13017 16.0754C4.96143 16.0754 4.84234 16.0902 4.77786 16.1051V17.2266V17.2266Z" fill="white"/>
<path d="M6.94577 15.6734C7.21869 15.6337 7.55613 15.6039 7.91838 15.6039C8.54365 15.6039 8.97039 15.7329 9.27807 15.991C9.6056 16.254 9.8041 16.656 9.8041 17.2216C9.8041 17.8221 9.60063 18.2637 9.28304 18.5515C8.95058 18.8542 8.41959 19.0081 7.76954 19.0081C7.41722 19.0081 7.14924 18.9882 6.94577 18.9634V15.6734V15.6734ZM7.55613 18.5118C7.6405 18.5267 7.76949 18.5267 7.89356 18.5267C8.68753 18.5317 9.15894 18.09 9.15894 17.2415C9.16391 16.5071 8.73713 16.0803 7.97296 16.0803C7.77944 16.0803 7.64547 16.0952 7.55613 16.115V18.5118V18.5118Z" fill="white"/>
<path d="M10.3355 15.6279H12.2708V16.1291H10.9459V17.052H12.1765V17.5482H10.9459V18.9724H10.3355V15.6278L10.3355 15.6279Z" fill="white"/>
<path d="M6.8071 13.0185C6.5664 13.0185 6.27651 12.9399 5.96871 12.6853C5.63986 12.4133 5.64193 12.1033 5.67239 11.9426C5.70779 11.7563 5.81073 11.5767 5.9872 11.3936C6.11977 11.2561 6.29155 11.1186 6.51228 10.9733C6.85737 10.7461 7.3198 10.5039 7.88674 10.2533C8.03059 10.1898 8.17365 10.1289 8.31285 10.0715C8.42019 9.83423 8.73794 9.12166 9.04689 8.32764C9.08436 8.23143 9.11983 8.13873 9.15353 8.04928C8.83715 7.62955 8.61141 7.21427 8.4824 6.81467C8.32301 6.32092 8.30423 5.83539 8.42662 5.37152C8.50063 5.091 8.63168 4.87341 8.81606 4.72479C8.99957 4.57692 9.22957 4.50862 9.46381 4.53261C9.59937 4.54646 9.73166 4.58957 9.85698 4.66077C9.97609 4.72844 10.0835 4.81852 10.1762 4.92856C10.2695 5.03926 10.3446 5.16626 10.3991 5.30592C10.456 5.45126 10.4892 5.60715 10.4981 5.76925C10.5145 6.06869 10.4408 6.49369 10.2728 7.06863C10.1991 7.32098 10.107 7.60221 9.99764 7.90949C10.4037 8.38009 10.8833 8.80703 11.2971 9.16041C11.3061 9.15884 11.3152 9.1573 11.3242 9.15577C11.7997 9.0749 12.2048 9.0432 12.5282 9.06154C12.7432 9.0737 12.9224 9.10697 13.0761 9.16328C13.2816 9.23854 13.4374 9.35522 13.5392 9.51006C13.6581 9.69096 13.7021 9.8912 13.6664 10.0891C13.6336 10.2712 13.5359 10.4356 13.3839 10.5646C13.19 10.7291 12.9239 10.8193 12.6405 10.8193C12.6024 10.8193 12.564 10.8177 12.5254 10.8144C12.1747 10.7844 11.8327 10.6234 11.5362 10.3487C11.4183 10.2394 11.2647 10.1092 11.0873 9.9592C10.5206 10.0772 10.052 10.2204 10.0159 10.2316C9.97646 10.2445 9.47475 10.4103 8.85236 10.6572C8.77606 10.8703 8.65948 11.1684 8.50706 11.4791C8.33594 11.828 8.15396 12.122 7.96622 12.353C7.70625 12.6729 7.42738 12.88 7.13736 12.9686C7.04337 12.9974 6.93181 13.0185 6.80698 13.0185H6.8071ZM6.40598 12.0741C6.41153 12.0814 6.42247 12.0939 6.44282 12.1107C6.67299 12.3011 6.8253 12.2847 6.91983 12.2559C7.06301 12.2122 7.22419 12.0844 7.3859 11.8862C7.53758 11.7004 7.68851 11.4559 7.83448 11.1596C7.8479 11.1323 7.86108 11.1051 7.87389 11.078C7.47177 11.2673 7.14221 11.4477 6.89169 11.6157C6.72322 11.7286 6.59342 11.8341 6.50594 11.9291C6.43387 12.0074 6.41215 12.0557 6.40594 12.0741H6.40598ZM12.0545 9.81328C12.4432 10.1648 12.7929 10.0891 12.9025 9.99605C12.9259 9.97626 12.9331 9.96066 12.9338 9.95676C12.9341 9.95522 12.9323 9.94265 12.9173 9.91979C12.9004 9.89398 12.7903 9.82324 12.4887 9.80581C12.362 9.79847 12.2169 9.801 12.0545 9.81328ZM9.70335 8.69331C9.55917 9.06017 9.41499 9.40637 9.2919 9.69399C9.58101 9.58977 9.77082 9.52765 9.78789 9.52209L9.79241 9.52064C9.80936 9.51533 10.0449 9.44231 10.3885 9.35563C10.1618 9.15174 9.92797 8.93005 9.70331 8.69335L9.70335 8.69331ZM9.37317 5.27331C9.2425 5.27331 9.17528 5.45234 9.1464 5.56188C9.00222 6.1084 9.15688 6.65667 9.46145 7.17498C9.72693 6.35158 9.7639 5.97542 9.75486 5.81004C9.73613 5.46807 9.52502 5.28804 9.38826 5.27405C9.38316 5.27351 9.37815 5.27327 9.37322 5.27327L9.37317 5.27331Z" fill="#C62727"/>
<path d="M2.66905 6.71944C2.71345 6.76584 2.77335 6.79088 2.83145 6.79088C2.88954 6.79088 2.94934 6.76763 2.99384 6.71944L4.46043 5.18682C4.55105 5.09213 4.55105 4.94031 4.46043 4.84562C4.36982 4.75093 4.22454 4.75093 4.13393 4.84562L3.0622 5.96739V2.50456C3.0622 2.37062 2.95961 2.26341 2.83145 2.26341C2.70328 2.26341 2.60069 2.37062 2.60069 2.50456V5.9675L1.52725 4.84573C1.43664 4.75103 1.29136 4.75103 1.20075 4.84573C1.11014 4.94042 1.11014 5.09224 1.20075 5.18693L2.66905 6.71944Z" fill="#2B2A2A"/>
</svg>
