<svg width="19" height="26" viewBox="0 0 19 26" fill="none" xmlns="http://www.w3.org/2000/svg">
<path d="M12.2218 21.8259L14.0993 23.7035L17.8545 19.9483" stroke="white" stroke-width="1.5" stroke-linecap="round" stroke-linejoin="round"/>
<path d="M9.40542 11.7214C9.28189 11.7091 9.13366 11.7091 8.99778 11.7214C6.05783 11.6226 3.7232 9.21387 3.7232 6.24925C3.71084 3.22287 6.169 0.764706 9.19542 0.764706C12.2218 0.764706 14.68 3.22287 14.68 6.24925C14.68 9.21387 12.333 11.6226 9.40542 11.7214Z" stroke="white" stroke-width="1.5" stroke-linecap="round" stroke-linejoin="round"/>
<path d="M9.19529 25.2353C6.94712 25.2353 4.71135 24.6671 3.0067 23.5306C0.0173752 21.5295 0.0173752 18.2684 3.0067 16.2797C6.40366 14.0068 11.9746 14.0068 15.3716 16.2797" stroke="white" stroke-width="1.5" stroke-linecap="round" stroke-linejoin="round"/>
</svg>
