<svg width="19" height="16" viewBox="0 0 19 16" fill="none" xmlns="http://www.w3.org/2000/svg">
<path fill-rule="evenodd" clip-rule="evenodd" d="M1.91959 1.91959C1.5402 2.29898 1.30861 2.98451 1.30861 4.32715V11.6729C1.30861 12.4966 1.51486 13.2472 1.95951 13.7806C2.38666 14.293 3.10542 14.6914 4.32715 14.6914H9.84078C11.1784 14.6914 11.8647 14.46 12.2455 14.08C12.626 13.7002 12.8593 13.0142 12.8593 11.6729V4.32715C12.8593 2.98451 12.6277 2.29898 12.2483 1.91959C11.8689 1.5402 11.1834 1.30861 9.84078 1.30861H4.32715C2.98451 1.30861 2.29898 1.5402 1.91959 1.91959ZM0.994258 0.994258C1.76209 0.226429 2.91297 0 4.32715 0H9.84078C11.255 0 12.4058 0.226429 13.1737 0.994258C13.9415 1.76209 14.1679 2.91297 14.1679 4.32715V11.6729C14.1679 13.0883 13.9388 14.2387 13.17 15.0062C12.4014 15.7733 11.2512 16 9.84078 16H4.32715C2.79206 16 1.67441 15.4823 0.954336 14.6185C0.251772 13.7757 0 12.6899 0 11.6729V4.32715C0 2.91297 0.226429 1.76209 0.994258 0.994258Z" fill="#F26F22"/>
<path fill-rule="evenodd" clip-rule="evenodd" d="M16.3142 4.07786C16.314 4.07798 16.3138 4.0781 16.3137 4.07822L14.168 5.58329V10.4077L16.3147 11.9135L16.3163 11.9146C16.8137 12.2657 17.0822 12.2087 17.1641 12.1662C17.2463 12.1235 17.4482 11.9355 17.4482 11.3237V4.67596C17.4482 4.0648 17.2466 3.87548 17.1628 3.83173C17.0792 3.78807 16.8104 3.73144 16.3142 4.07786ZM17.7686 2.67176C18.47 3.03805 18.7569 3.83018 18.7569 4.67596V11.3237C18.7569 12.1689 18.4702 12.9623 17.7673 13.3275C17.0643 13.6927 16.2514 13.4703 15.5625 12.9843C15.5622 12.9841 15.5619 12.9839 15.5617 12.9837L13.1379 11.2836C12.9633 11.1611 12.8594 10.9612 12.8594 10.7479V5.24302C12.8594 5.02973 12.9633 4.82983 13.1379 4.70735L15.5632 3.00616L15.5643 3.00542C16.2543 2.52346 17.067 2.3054 17.7686 2.67176Z" fill="#F26F22"/>
<path fill-rule="evenodd" clip-rule="evenodd" d="M6.97974 5.81897C6.97974 4.73487 7.8586 3.85605 8.94266 3.85605C10.0267 3.85605 10.9056 4.73487 10.9056 5.81897C10.9056 6.90304 10.0267 7.78189 8.94266 7.78189C7.85859 7.78189 6.97974 6.90304 6.97974 5.81897ZM8.94266 5.16466C8.58131 5.16466 8.28835 5.45761 8.28835 5.81897C8.28835 6.18031 8.58132 6.47328 8.94266 6.47328C9.304 6.47328 9.59696 6.18031 9.59696 5.81897C9.59696 5.45761 9.30401 5.16466 8.94266 5.16466Z" fill="#F26F22"/>
</svg>
