<svg width="15" height="20" viewBox="0 0 15 20" fill="none" xmlns="http://www.w3.org/2000/svg">
<path fill-rule="evenodd" clip-rule="evenodd" d="M14.1858 14.782C14.4606 15.0569 14.4606 15.5026 14.1858 15.7774L11.3326 18.6306C11.0577 18.9055 10.612 18.9055 10.3372 18.6306L8.91059 17.204C8.6357 16.9291 8.6357 16.4834 8.91059 16.2086C9.18548 15.9337 9.63116 15.9337 9.90605 16.2086L10.8349 17.1374L13.1903 14.782C13.4652 14.5071 13.9109 14.5071 14.1858 14.782Z" fill="#F26F22"/>
<path fill-rule="evenodd" clip-rule="evenodd" d="M7.1099 1.4078C5.19866 1.4078 3.64829 2.96025 3.65607 4.8681L3.65609 4.87098C3.65608 6.7321 5.10993 8.24217 6.94555 8.32369C7.05684 8.31595 7.17442 8.31557 7.28534 8.32361C9.11209 8.24108 10.5731 6.73033 10.5731 4.87098C10.5731 2.96033 9.02055 1.4078 7.1099 1.4078ZM2.24828 4.87241C2.23808 2.18212 4.42276 0 7.1099 0C9.79806 0 11.9809 2.18282 11.9809 4.87098C11.9809 7.50314 9.89663 9.64429 7.2932 9.73217C7.2619 9.73322 7.23057 9.73219 7.19941 9.72907C7.15415 9.72455 7.08653 9.72394 7.02347 9.72968C6.99442 9.73232 6.96524 9.73315 6.93609 9.73217C4.32254 9.64432 2.24904 7.50281 2.24828 4.87241Z" fill="#F26F22"/>
<path fill-rule="evenodd" clip-rule="evenodd" d="M7.10466 11.9005C5.50831 11.9005 3.9492 12.307 2.79877 13.0768L2.79723 13.0778L2.79723 13.0778C1.80855 13.7355 1.4078 14.5336 1.4078 15.2428C1.4078 15.9524 1.80893 16.7531 2.79836 17.4156C3.95423 18.186 5.50906 18.5922 7.10934 18.5922C7.49809 18.5922 7.81323 18.9073 7.81323 19.2961C7.81323 19.6849 7.49809 20 7.10934 20C5.29363 20 3.45129 19.5429 2.01688 18.5866L2.01577 18.5859C0.734346 17.728 0 16.5298 0 15.2428C0 13.9556 0.73457 12.7595 2.01667 11.9062C3.44708 10.9494 5.29449 10.4927 7.10466 10.4927C8.91516 10.4927 10.7629 10.9496 12.1934 11.9067C12.5165 12.1229 12.6032 12.5601 12.387 12.8832C12.1708 13.2063 11.7337 13.293 11.4106 13.0768C10.2601 12.307 8.70102 11.9005 7.10466 11.9005Z" fill="#F26F22"/>
</svg>
