<svg width="19" height="22" viewBox="0 0 19 22" fill="none" xmlns="http://www.w3.org/2000/svg">
<path d="M8.27879 21.6281C8.16949 21.6138 8.05823 21.6053 7.95024 21.5845C7.05697 21.4154 6.3706 20.9482 5.92429 20.15C5.68943 19.731 5.59639 19.2749 5.59704 18.7961C5.599 17.0681 5.59509 15.3401 5.6003 13.6122C5.6016 13.2563 5.52938 12.9212 5.39796 12.5953C5.28671 12.3181 5.15789 12.0488 4.96207 11.8217C4.79551 11.6291 4.6127 11.4496 4.43704 11.2648C3.35445 10.1263 2.27707 8.98254 1.18733 7.85051C0.681821 7.32483 0.333754 6.71522 0.123613 6.02234C0.0618063 5.81806 0.0227707 5.60922 0.00975888 5.39582C0.0084577 5.37891 0.00325296 5.36199 0 5.34508C0 5.28522 0 5.22537 0 5.16551C0.0234213 5.08484 0.0383849 5.00091 0.0722157 4.92479C0.207539 4.61966 0.547148 4.43294 0.857481 4.48629C1.22116 4.5494 1.484 4.81614 1.50222 5.17202C1.52239 5.57278 1.66942 5.9267 1.85744 6.27087C2.00187 6.53371 2.21201 6.7419 2.41565 6.95594C3.04152 7.61369 3.66739 8.27144 4.29326 8.92984C4.88009 9.54725 5.46758 10.1634 6.05311 10.7821C6.24048 10.9799 6.38621 11.2095 6.51633 11.4476C6.77462 11.92 6.96979 12.4164 7.05567 12.9498C7.0856 13.1346 7.10121 13.3239 7.10186 13.5113C7.10512 15.2712 7.10512 17.031 7.10251 18.7909C7.10251 19.0719 7.15782 19.3341 7.32697 19.5618C7.60803 19.9398 7.98992 20.122 8.459 20.1213C8.69907 20.1213 8.91962 20.0504 9.1213 19.9203C9.59428 19.6152 10.0679 19.3107 10.5402 19.0043C10.673 18.9177 10.7634 18.7902 10.8434 18.6575C10.9599 18.4649 11.0412 18.2574 11.0718 18.0323C11.0802 17.9711 11.0789 17.9093 11.0854 17.8482C11.129 17.4409 11.479 17.1494 11.8909 17.1767C12.2799 17.2021 12.5909 17.5417 12.5844 17.9386C12.5779 18.3439 12.4777 18.7278 12.3099 19.0953C12.1667 19.4083 11.982 19.6932 11.7445 19.9437C11.5773 20.1207 11.3789 20.2567 11.1759 20.3874C10.7569 20.6568 10.3405 20.9294 9.91958 21.1955C9.56045 21.4225 9.1701 21.5643 8.74526 21.6086C8.68085 21.6151 8.61644 21.6222 8.55203 21.6294H8.27749L8.27879 21.6281Z" fill="#2B2A2A"/>
<path d="M19 5.15334C18.9902 5.23662 18.9805 5.31989 18.9707 5.40382C18.9278 5.75904 18.8269 6.0993 18.6903 6.4285C18.5179 6.84488 18.3006 7.23654 18.0189 7.58981C17.9343 7.6952 17.8452 7.798 17.7489 7.89298C17.5205 8.11744 17.1913 8.16688 16.8992 8.02896C16.626 7.89949 16.4549 7.60542 16.479 7.29639C16.4933 7.11292 16.57 6.95613 16.6956 6.82081C17.069 6.41809 17.3091 5.94316 17.4399 5.41358C17.4737 5.27695 17.4893 5.13187 17.49 4.99069C17.4945 4.26593 17.4913 3.54052 17.4926 2.81576C17.4926 2.48721 17.3924 2.19575 17.1744 1.94982C16.9109 1.65185 16.5778 1.50677 16.1803 1.50677C15.6703 1.50677 15.1596 1.50677 14.6495 1.50677C10.7141 1.50677 6.77927 1.50677 2.84384 1.50677C2.63955 1.50677 2.45218 1.46058 2.29799 1.3207C2.06638 1.11056 1.98701 0.848372 2.07028 0.550401C2.15291 0.25243 2.3611 0.0774205 2.66232 0.0130118C2.67729 0.00975888 2.69225 0.00455415 2.70656 0C7.26136 0 11.8162 0 16.371 0C16.3859 0.00325296 16.4015 0.00910829 16.4165 0.00975888C17.0059 0.0566015 17.5316 0.26349 17.9844 0.642785C18.5355 1.10405 18.866 1.69219 18.9694 2.40524C18.9811 2.48656 18.9896 2.56854 19 2.64986V5.15269V5.15334Z" fill="#2B2A2A"/>
<path d="M16.8891 14.3603C16.9457 14.4215 16.9951 14.4794 17.0485 14.5327C17.3556 14.8424 17.6691 15.1469 17.971 15.4618C18.2488 15.752 18.2332 16.2048 17.9482 16.4969C17.6757 16.776 17.2085 16.7955 16.9203 16.5268C16.6744 16.2978 16.4421 16.0545 16.2047 15.817C16.0876 15.6999 15.9704 15.5835 15.8559 15.4644C15.8286 15.4364 15.8104 15.4371 15.7805 15.4572C15.5196 15.6303 15.2424 15.7702 14.9484 15.8769C14.5905 16.007 14.2217 16.0831 13.8411 16.1052C13.022 16.1527 12.2569 15.9712 11.5536 15.549C10.8561 15.13 10.3324 14.549 9.98825 13.8099C9.7124 13.2179 9.59204 12.594 9.62652 11.9427C9.67011 11.1126 9.94466 10.3644 10.4567 9.70795C10.9622 9.05996 11.6076 8.60715 12.3909 8.35667C12.9192 8.18752 13.4605 8.13547 14.0122 8.19403C14.7571 8.27275 15.4279 8.53949 16.0186 8.99816C16.6627 9.49846 17.1174 10.136 17.3699 10.9142C17.619 11.6838 17.6314 12.4593 17.4122 13.2374C17.3055 13.6154 17.1435 13.97 16.9288 14.2998C16.9145 14.322 16.9008 14.3441 16.8904 14.3603H16.8891ZM13.5847 14.6089C14.9542 14.6115 16.0446 13.5094 16.0602 12.1633C16.0758 10.8088 14.9783 9.69234 13.6107 9.67608C12.2549 9.65981 11.1411 10.7574 11.1261 12.1275C11.1118 13.4638 12.1944 14.603 13.5847 14.6095V14.6089Z" fill="#2B2A2A"/>
</svg>
