<svg width="24" height="21" viewBox="0 0 24 21" fill="none" xmlns="http://www.w3.org/2000/svg">
<g opacity="0.5">
<path d="M23.25 13.4995C22.836 13.4995 22.5 13.8355 22.5 14.2495V19.4995H1.5V10.4995H9.75C10.164 10.4995 10.5 10.1635 10.5 9.74949C10.5 9.33549 10.164 8.99949 9.75 8.99949H1.5V5.99949H9.75C10.164 5.99949 10.5 5.66349 10.5 5.24949C10.5 4.83549 10.164 4.49949 9.75 4.49949H1.5C0.672 4.49949 0 5.17149 0 5.99949V19.4995C0 20.3275 0.672 20.9995 1.5 20.9995H22.5C23.328 20.9995 24 20.3275 24 19.4995V14.2495C24 13.8355 23.664 13.4995 23.25 13.4995Z" fill="#2B2A2A"/>
<path d="M6.74992 13.4995H3.74992C3.33592 13.4995 2.99992 13.8355 2.99992 14.2495C2.99992 14.6635 3.33592 14.9995 3.74992 14.9995H6.74992C7.16392 14.9995 7.49992 14.6635 7.49992 14.2495C7.49992 13.8355 7.16392 13.4995 6.74992 13.4995Z" fill="#2B2A2A"/>
<path d="M23.5452 2.30962L18.2952 0.059625C18.1047 -0.019875 17.8932 -0.019875 17.7027 0.059625L12.4527 2.30962C12.1782 2.42812 11.9997 2.69962 11.9997 2.99962V5.99962C11.9997 10.1261 13.5252 12.5381 17.6262 14.9006C17.7417 14.9666 17.8707 14.9996 17.9997 14.9996C18.1287 14.9996 18.2577 14.9666 18.3732 14.9006C22.4742 12.5441 23.9997 10.1321 23.9997 5.99962V2.99962C23.9997 2.69962 23.8212 2.42812 23.5452 2.30962ZM22.4997 5.99962C22.4997 9.46312 21.3537 11.3696 17.9997 13.3796C14.6457 11.3651 13.4997 9.45862 13.4997 5.99962V3.49462L17.9997 1.56562L22.4997 3.49462V5.99962Z" fill="#2B2A2A"/>
<path d="M20.7192 4.66309C20.3967 4.40809 19.9257 4.45759 19.6647 4.78009L17.3067 7.72909L16.3737 6.33409C16.1412 5.98909 15.6747 5.89759 15.3342 6.12559C14.9907 6.35509 14.8962 6.82159 15.1257 7.16509L16.6257 9.41509C16.7592 9.61459 16.9782 9.73759 17.2182 9.74959C17.2287 9.74959 17.2407 9.74959 17.2497 9.74959C17.4762 9.74959 17.6922 9.64759 17.8362 9.46759L20.8362 5.71759C21.0942 5.39359 21.0432 4.92259 20.7192 4.66309Z" fill="#2B2A2A"/>
</g>
</svg>
