<svg width="18" height="20" viewBox="0 0 18 20" fill="none" xmlns="http://www.w3.org/2000/svg">
<path d="M0.755026 7.16778V12.4537C0.755026 14.3959 0.755026 14.3959 2.58724 15.6326L7.62584 18.5458C8.3862 18.9856 9.62295 18.9856 10.3742 18.5458L15.4128 15.6326C17.245 14.3959 17.245 14.3959 17.245 12.4629V7.16778C17.245 5.23479 17.245 5.23479 15.4128 3.99805L10.3742 1.08482C9.62295 0.645093 8.3862 0.645093 7.62584 1.08482L2.58724 3.99805C0.755026 5.23479 0.755026 5.23479 0.755026 7.16778Z" stroke="#474747" stroke-width="1.5" stroke-linecap="round" stroke-linejoin="round"/>
<path d="M8.99999 12.5636C10.5178 12.5636 11.7483 11.3332 11.7483 9.81532C11.7483 8.29746 10.5178 7.067 8.99999 7.067C7.48213 7.067 6.25166 8.29746 6.25166 9.81532C6.25166 11.3332 7.48213 12.5636 8.99999 12.5636Z" stroke="#474747" stroke-width="1.5" stroke-linecap="round" stroke-linejoin="round"/>
</svg>
