<svg width="18" height="15" viewBox="0 0 18 15" fill="none" xmlns="http://www.w3.org/2000/svg">
<path d="M12.8529 14.5H4.61765C2.14706 14.5 0.5 13.2647 0.5 10.3824V4.61765C0.5 1.73529 2.14706 0.5 4.61765 0.5H12.8529C15.3235 0.5 16.9706 1.73529 16.9706 4.61765V10.3824C16.9706 13.2647 15.3235 14.5 12.8529 14.5Z" stroke="#F26F22" stroke-miterlimit="10" stroke-linecap="round" stroke-linejoin="round"/>
<path d="M8.7353 9.9706C10.0998 9.9706 11.2059 8.86451 11.2059 7.50001C11.2059 6.1355 10.0998 5.02942 8.7353 5.02942C7.37079 5.02942 6.26471 6.1355 6.26471 7.50001C6.26471 8.86451 7.37079 9.9706 8.7353 9.9706Z" stroke="#F26F22" stroke-miterlimit="10" stroke-linecap="round" stroke-linejoin="round"/>
<path d="M3.38235 5.44118V9.55882" stroke="#F26F22" stroke-miterlimit="10" stroke-linecap="round" stroke-linejoin="round"/>
<path d="M14.0883 5.44118V9.55882" stroke="#F26F22" stroke-miterlimit="10" stroke-linecap="round" stroke-linejoin="round"/>
</svg>
