<svg width="137" height="34" viewBox="0 0 137 34" fill="none" xmlns="http://www.w3.org/2000/svg">
<path d="M63.3911 23.7229C62.8335 23.2523 62.5546 22.6685 62.5546 21.9715C62.5546 21.2744 62.8422 20.6645 63.426 20.1591C64.0098 19.6537 64.8027 19.3923 65.8047 19.3923C66.7109 19.3923 67.5387 19.6537 68.2706 20.1852C68.6017 20.4466 68.8631 20.708 69.0635 20.9607L67.9221 21.6665C67.3818 20.9694 66.6761 20.6209 65.8047 20.6209C65.1599 20.6209 64.6807 20.7603 64.367 21.0304C64.0533 21.3005 63.8965 21.6142 63.8965 21.9628C63.8965 22.3113 64.0795 22.6163 64.4367 22.8602C64.794 23.1042 65.3168 23.2959 65.9877 23.4353C67.1204 23.5834 67.9918 23.8971 68.593 24.3851C69.1942 24.873 69.4992 25.4829 69.4992 26.2236C69.4992 27.0339 69.1681 27.7048 68.4971 28.2364C67.8262 28.7592 66.9636 29.0293 65.918 29.0293C64.9421 29.0293 64.1405 28.7679 63.5131 28.2451C63.06 27.9052 62.7028 27.4609 62.4588 26.9206L63.6264 26.5373C64.2189 27.3737 64.9857 27.792 65.918 27.792C66.6238 27.792 67.1727 27.6526 67.5648 27.3737C67.9569 27.0949 68.1573 26.7464 68.1573 26.3369C68.1573 25.8402 67.9569 25.4742 67.5561 25.2303C67.1553 24.9863 66.4844 24.7946 65.552 24.6552C64.672 24.4983 63.9488 24.1847 63.3911 23.7229Z" fill="#231F20"/>
<path d="M78.4502 19.5107L74.9823 23.6408L78.5634 28.9124H76.9515L74.0935 24.6951L72.9433 26.0718V28.9124H71.6015V19.5107H72.9433V24.059L76.6988 19.5107H78.4502Z" fill="#231F20"/>
<path d="M81.6864 19.5107H80.3445V28.9211H81.6864V19.5107Z" fill="#231F20"/>
<path d="M84.394 28.9211V19.5107H85.7359V27.6925H89.9967V28.9211H84.394Z" fill="#231F20"/>
<path d="M91.1047 28.9211V19.5107H92.4553V27.6925H96.7074V28.9211H91.1047Z" fill="#231F20"/>
<path d="M104.078 25.3399V28.9211H102.736V19.5107H106.544C107.346 19.5107 108.025 19.7982 108.6 20.3646C109.175 20.9397 109.454 21.6193 109.454 22.4209C109.454 23.2226 109.167 23.9022 108.6 24.4773C108.025 25.0436 107.346 25.3312 106.544 25.3312H104.078V25.3399ZM104.078 20.748V24.1113H106.431C106.927 24.1113 107.337 23.9371 107.651 23.5972C107.964 23.2487 108.112 22.8653 108.112 22.4296C108.112 21.994 107.956 21.6106 107.651 21.2621C107.337 20.9135 106.936 20.748 106.431 20.748H104.078Z" fill="#231F20"/>
<path d="M115.212 19.5107L119.316 28.9211H117.835L116.859 26.6818H112.415L111.439 28.9211H109.975L114.053 19.5107H115.221H115.212ZM116.336 25.4445L114.637 21.5496L112.947 25.4445H116.345H116.336Z" fill="#231F20"/>
<path d="M127.183 27.2959C127.236 27.8797 127.332 28.4286 127.462 28.9514H126.155C125.998 28.6813 125.894 28.2108 125.842 27.5398C125.807 26.7643 125.667 26.198 125.406 25.8494C125.145 25.5009 124.657 25.3266 123.951 25.3266H122.034V28.9078H120.692V19.4974H124.5C125.301 19.4974 125.99 19.785 126.556 20.3513C127.131 20.9264 127.41 21.6061 127.41 22.4077C127.41 23.5404 126.913 24.3159 125.911 24.7341C126.722 25.1611 127.14 26.0063 127.192 27.2784M122.043 20.726V24.0894H124.055C124.779 24.0894 125.293 23.9151 125.606 23.5753C125.92 23.2267 126.068 22.8434 126.068 22.4077C126.068 21.972 125.911 21.5886 125.606 21.2401C125.293 20.8916 124.857 20.726 124.282 20.726H122.043Z" fill="#231F20"/>
<path d="M136.505 19.5107L133.028 23.6408L136.618 28.9124H135.006L132.148 24.6951L130.989 26.0718V28.9124H129.647V19.5107H130.989V24.059L134.744 19.5107H136.505Z" fill="#231F20"/>
<path d="M68.7112 13.6106L69.7829 14.2292C69.5912 14.5342 69.417 14.7694 69.2775 14.935C68.5021 15.693 67.5697 16.0677 66.4806 16.0677C65.3914 16.0677 64.4591 15.6756 63.6923 14.8827C62.9255 14.0985 62.5421 13.0006 62.5421 11.6065C62.5421 10.2124 62.9255 9.11448 63.6923 8.33028C64.4591 7.54608 65.3914 7.14526 66.4806 7.14526C67.5697 7.14526 68.5021 7.51993 69.2775 8.27799C69.3995 8.41741 69.5564 8.62652 69.7568 8.89664L68.6763 9.54143C68.1622 8.70495 67.4216 8.28671 66.4806 8.28671C65.7399 8.28671 65.1039 8.57425 64.5811 9.14933C64.0496 9.7244 63.7882 10.5435 63.7882 11.5978C63.7882 12.6521 64.0496 13.4711 64.5811 14.0549C65.1126 14.63 65.7486 14.9176 66.4806 14.9176C67.4303 14.9176 68.171 14.4819 68.7199 13.6018" fill="#231F20"/>
<path d="M77.7656 8.33028C78.5324 9.11448 78.9158 10.2124 78.9158 11.6065C78.9158 13.0006 78.5324 14.0985 77.7656 14.8827C76.9989 15.6756 76.0665 16.0677 74.9774 16.0677C73.8882 16.0677 72.9559 15.6756 72.1891 14.8827C71.4223 14.0985 71.0389 13.0006 71.0389 11.6065C71.0389 10.2124 71.4223 9.11448 72.1891 8.33028C72.9559 7.54608 73.8882 7.14526 74.9774 7.14526C76.0665 7.14526 76.9989 7.53736 77.7656 8.33028ZM74.9774 8.28671C74.2367 8.28671 73.6007 8.57425 73.0691 9.14933C72.5376 9.7244 72.2762 10.5435 72.2762 11.6065C72.2762 12.6695 72.5376 13.4799 73.0691 14.0549C73.6007 14.63 74.2367 14.9176 74.9774 14.9176C75.718 14.9176 76.3541 14.63 76.8769 14.0549C77.4084 13.4799 77.6698 12.6608 77.6698 11.6065C77.6698 10.5522 77.4084 9.73312 76.8769 9.14933C76.3454 8.57425 75.718 8.28671 74.9774 8.28671Z" fill="#231F20"/>
<path d="M82.2535 9.70472V15.9609H81.0074V7.24756H82.4016L85.3641 13.1726L88.3615 7.24756H89.7121V15.9609H88.4661V9.757L85.8433 15.0198H84.9284L82.2535 9.70472Z" fill="#231F20"/>
<path d="M93.4368 9.70472V15.9609H92.1995V7.24756H93.5849L96.5562 13.1726L99.5536 7.24756H100.895V15.9609H99.6494V9.757L97.0267 15.0198H96.1205L93.4368 9.70472Z" fill="#231F20"/>
<path d="M108.543 12.7457V7.24756H109.789V12.7457C109.789 13.6606 109.466 14.4361 108.813 15.0896C108.159 15.7431 107.384 16.0654 106.469 16.0654C105.554 16.0654 104.779 15.7431 104.125 15.0896C103.48 14.4361 103.149 13.6606 103.149 12.7457V7.24756H104.395V12.7457C104.395 13.3208 104.578 13.8261 104.953 14.2618C105.319 14.6975 105.833 14.924 106.469 14.924C107.105 14.924 107.619 14.7062 107.985 14.2618C108.36 13.8261 108.543 13.3208 108.543 12.7457Z" fill="#231F20"/>
<path d="M112.114 15.9609V7.24756H113.656L117.917 14.0701V7.24756H119.163V15.9609H117.638L113.351 9.1035V15.9609H112.114Z" fill="#231F20"/>
<path d="M122.849 7.24756H121.603V15.9609H122.849V7.24756Z" fill="#231F20"/>
<path d="M130.363 7.24756V8.38901H127.653V15.9609H126.407V8.38901H123.715V7.24756H130.363Z" fill="#231F20"/>
<path d="M132.736 15.9609V13.2598L130.026 7.24756H131.377L133.372 11.8133L135.359 7.24756H136.735L133.982 13.2859V15.9609H132.736Z" fill="#231F20"/>
<path d="M1.29176 10.8043L1.69852 26.7993H12.6609L18.1002 25.7385L20.6325 24.271L25.9003 19.4458L23.9104 12.9617L8.84859 9.48834L1.29176 10.8043Z" fill="white"/>
<g style="mix-blend-mode:multiply">
<mask id="mask0_1_205" style="mask-type:luminance" maskUnits="userSpaceOnUse" x="24" y="0" width="31" height="34">
<path d="M54.7159 0H24.3729V33.9998H54.7159V0Z" fill="white"/>
</mask>
<g mask="url(#mask0_1_205)">
<path d="M26.464 13.994L49.6529 0.67887C52.4363 -0.920227 54.7174 0.399726 54.7174 3.60988V30.4077C54.7174 33.6179 52.4443 34.9259 49.6688 33.3148L36.1862 25.4868L34.8383 24.7052L26.448 19.8321C23.6725 18.2211 23.6805 15.5931 26.46 13.994" fill="#70BA82"/>
</g>
</g>
<path d="M4.32823 16.9633H4.2724C3.93344 16.9633 3.64234 17.079 3.39908 17.3103C3.15583 17.5415 3.03619 17.8247 3.03619 18.1557V18.5345C3.03619 18.8575 3.15583 19.1367 3.39908 19.3679C3.64234 19.5992 3.93344 19.7149 4.2724 19.7149H4.32823C4.66719 19.7149 4.9583 19.5992 5.20156 19.3679C5.44481 19.1367 5.56444 18.8575 5.56444 18.5345V18.1557C5.56444 17.8247 5.44481 17.5415 5.20156 17.3103C4.9583 17.079 4.66719 16.9633 4.32823 16.9633Z" fill="#00ABBD"/>
<path d="M15.2779 16.9633H15.222C14.8831 16.9633 14.592 17.079 14.3487 17.3103C14.1055 17.5415 13.9858 17.8247 13.9858 18.1557V18.5345C13.9858 18.8575 14.1094 19.1367 14.3487 19.3679C14.592 19.5992 14.8831 19.7149 15.222 19.7149H15.2779C15.6168 19.7149 15.9079 19.5992 16.1512 19.3679C16.3944 19.1367 16.5141 18.8575 16.5141 18.5345V18.1557C16.5141 17.8247 16.3944 17.5415 16.1512 17.3103C15.9079 17.079 15.6168 16.9633 15.2779 16.9633Z" fill="#00ABBD"/>
<path d="M28.2534 13.9933L5.06447 0.678099C2.27702 -0.91701 0 0.398955 0 3.60911V30.403C0 33.6131 2.27303 34.9211 5.04852 33.31L18.5312 25.482V15.8157C18.5312 15.1378 18.7824 14.5556 19.2849 14.073C19.7873 13.5905 20.3975 13.3473 21.1113 13.3473H21.1671C21.8809 13.3473 22.491 13.5865 22.9935 14.073C23.496 14.5556 23.7472 15.1378 23.7472 15.8157V18.4636C23.7472 19.1415 23.496 19.7237 22.9935 20.2062C22.491 20.6887 21.8809 20.932 21.1671 20.932H21.1113C20.7005 20.932 20.3097 20.8403 19.9429 20.6568C19.895 20.6409 19.8751 20.6529 19.8751 20.6967V24.7004L28.2653 19.8274C31.0408 18.2163 31.0368 15.5884 28.2534 13.9933ZM6.91081 18.5353C6.91081 19.2173 6.65559 19.7995 6.15313 20.278C5.65067 20.7605 5.04055 20.9998 4.32673 20.9998H4.27091C3.55709 20.9998 2.94696 20.7605 2.44451 20.282C1.94205 19.8035 1.69082 19.2212 1.69082 18.5433V18.1645C1.69082 17.4826 1.94205 16.9043 2.44451 16.4178C2.94696 15.9353 3.55709 15.6921 4.27091 15.6921H4.32673C4.73747 15.6921 5.12828 15.7838 5.49515 15.9672C5.53902 15.9832 5.56294 15.9672 5.56294 15.9273V15.8755C5.56294 15.5485 5.44331 15.2733 5.20006 15.0381C4.9568 14.8028 4.6657 14.6871 4.32673 14.6871H4.27091C3.93194 14.6871 3.64084 14.8068 3.38961 15.046C3.262 15.1737 3.10648 15.2335 2.92304 15.2335C2.73162 15.2335 2.56813 15.1697 2.43653 15.0421C2.30493 14.9145 2.23714 14.7629 2.23714 14.5875C2.23714 14.412 2.30493 14.2525 2.44451 14.1289C2.94696 13.6463 3.55709 13.4071 4.27091 13.4071H4.32673C5.04055 13.4071 5.65067 13.6463 6.15313 14.1289C6.65559 14.6074 6.91081 15.1896 6.91081 15.8715V18.5433V18.5353ZM9.33139 16.1905L10.9225 17.1077C11.6363 17.5185 11.9952 18.1126 11.9952 18.8942C11.9952 19.0936 11.9673 19.289 11.9115 19.4804C11.7839 19.943 11.5207 20.3139 11.1259 20.597C10.7311 20.8802 10.2845 21.0197 9.78998 21.0197H9.75011C8.9047 21.0197 8.2188 20.6967 7.6964 20.0547C7.60468 19.943 7.55683 19.8114 7.55683 19.6639C7.55683 19.4525 7.64456 19.285 7.82002 19.1535C7.93966 19.0657 8.07923 19.0219 8.23475 19.0219C8.45408 19.0219 8.63353 19.1056 8.7731 19.2691C9.02034 19.5722 9.34734 19.7277 9.75409 19.7277H9.79796C10.0452 19.7277 10.2486 19.6479 10.4121 19.4844C10.5716 19.3249 10.6513 19.1255 10.6513 18.8903C10.6513 18.5872 10.5078 18.3559 10.2247 18.2004L8.64549 17.2872C7.91972 16.8764 7.56082 16.2823 7.56082 15.5007C7.56082 15.3013 7.58873 15.1019 7.64456 14.9145C7.78015 14.4519 8.04334 14.081 8.43015 13.7979C8.81697 13.5147 9.2636 13.3752 9.76606 13.3752H9.80593C10.6553 13.3752 11.3412 13.7022 11.8596 14.3522C11.9514 14.4758 11.9952 14.6034 11.9952 14.743C11.9952 14.9623 11.9035 15.1298 11.7201 15.2534C11.6044 15.3411 11.4688 15.385 11.3213 15.385C11.09 15.385 10.9066 15.3013 10.771 15.1378C10.5237 14.8227 10.1967 14.6672 9.79796 14.6672H9.75409C9.50685 14.6672 9.30348 14.747 9.14396 14.9105C8.98445 15.07 8.9047 15.2694 8.9047 15.5046C8.9047 15.8077 9.04826 16.039 9.33139 16.1945M17.8732 18.5393C17.8732 19.2212 17.622 19.8035 17.1155 20.282C16.6131 20.7645 16.0029 21.0038 15.2891 21.0038H15.2333C14.5195 21.0038 13.9094 20.7645 13.4069 20.286C12.9044 19.8074 12.6532 19.2252 12.6532 18.5473V18.1685C12.6532 17.4866 12.9044 16.9083 13.4069 16.4218C13.9094 15.9393 14.5195 15.6961 15.2333 15.6961H15.2891C15.7039 15.6961 16.0907 15.7878 16.4575 15.9712C16.5054 15.9872 16.5253 15.9712 16.5253 15.9313V15.8795C16.5253 15.5525 16.4017 15.2773 16.1624 15.0421C15.9192 14.8068 15.6281 14.6911 15.2891 14.6911H15.2333C14.8943 14.6911 14.5992 14.8108 14.352 15.05C14.2244 15.1776 14.0689 15.2375 13.8854 15.2375C13.694 15.2375 13.5305 15.1737 13.3989 15.046C13.2673 14.9184 13.1995 14.7669 13.1995 14.5914C13.1995 14.416 13.2673 14.2565 13.4069 14.1328C13.9094 13.6503 14.5195 13.4111 15.2333 13.4111H15.2891C16.0029 13.4111 16.6131 13.6503 17.1155 14.1328C17.618 14.6114 17.8732 15.1936 17.8732 15.8755V18.5473V18.5393Z" fill="#00ABBD"/>
<path d="M21.1069 19.6525H21.1627C21.5017 19.6525 21.7928 19.5369 22.0321 19.3056C22.2753 19.0743 22.3989 18.7912 22.3989 18.4642V15.8083C22.3989 15.4853 22.2753 15.2101 22.0321 14.9749C21.7888 14.7436 21.4977 14.6279 21.1627 14.6279H21.1069C20.7679 14.6279 20.4768 14.7436 20.2336 14.9749C19.9903 15.2062 19.8707 15.4853 19.8707 15.8083V18.4642C19.8707 18.7952 19.9903 19.0743 20.2336 19.3056C20.4768 19.5369 20.7679 19.6525 21.1069 19.6525Z" fill="#00ABBD"/>
<path d="M28.7252 30.1222C28.7252 30.4571 28.454 30.7243 28.123 30.7243C27.792 30.7243 27.5209 30.4532 27.5209 30.1222C27.5209 29.7912 27.788 29.52 28.123 29.52C28.458 29.52 28.7252 29.7912 28.7252 30.1222Z" fill="#A8CE6A"/>
<path d="M24.6662 27.2527C24.6662 27.7951 24.2276 28.2337 23.6852 28.2337C23.1429 28.2337 22.7042 27.7951 22.7042 27.2527C22.7042 26.7104 23.1429 26.2717 23.6852 26.2717C24.2276 26.2717 24.6662 26.7104 24.6662 27.2527Z" fill="#A8CE6A"/>
<path d="M30.4624 25.9848C30.4624 26.6866 29.8962 27.2529 29.1943 27.2529C28.4925 27.2529 27.9262 26.6866 27.9262 25.9848C27.9262 25.2829 28.4925 24.7167 29.1943 24.7167C29.8962 24.7167 30.4624 25.2829 30.4624 25.9848Z" fill="#A8CE6A"/>
<path d="M25.269 4.87353C25.269 5.75084 24.5552 6.46465 23.6779 6.46465C22.8006 6.46465 22.0868 5.75483 22.0868 4.87353C22.0868 3.99223 22.8006 3.28241 23.6779 3.28241C24.5552 3.28241 25.269 3.99622 25.269 4.87353Z" fill="#34C1CF"/>
<path d="M27.3425 9.04972C27.3425 9.59206 26.9039 10.0307 26.3615 10.0307C25.8192 10.0307 25.3806 9.59206 25.3806 9.04972C25.3806 8.50738 25.8192 8.06873 26.3615 8.06873C26.9039 8.06873 27.3425 8.50738 27.3425 9.04972Z" fill="#34C1CF"/>
<path d="M31.8069 5.85825C31.8069 6.40059 31.3682 6.83924 30.8259 6.83924C30.2835 6.83924 29.8449 6.40059 29.8449 5.85825C29.8449 5.31591 30.2835 4.87726 30.8259 4.87726C31.3682 4.87726 31.8069 5.31591 31.8069 5.85825Z" fill="#34C1CF"/>
<path d="M34.0772 14.1761C34.6195 13.6617 35.2695 13.4025 36.0392 13.4025H36.099C36.8646 13.4025 37.5186 13.6617 38.061 14.1801C38.2085 14.3117 38.2843 14.4752 38.2843 14.6746C38.2843 14.874 38.2125 15.0255 38.0689 15.1611C37.9254 15.2967 37.7499 15.3644 37.5426 15.3644C37.3352 15.3644 37.1797 15.2967 37.0401 15.1611C36.7769 14.9019 36.4579 14.7743 36.095 14.7743H36.0352C35.6723 14.7743 35.3612 14.8979 35.098 15.1491C34.8388 15.4003 34.7072 15.6994 34.7072 16.0464V17.0832V17.3224V18.3593C34.7072 18.7102 34.8349 19.0093 35.098 19.2565C35.3573 19.5077 35.6723 19.6314 36.0352 19.6314H36.095C36.4579 19.6314 36.7729 19.5038 37.0401 19.2446C37.1797 19.109 37.3432 19.0412 37.5426 19.0412C37.7499 19.0412 37.9254 19.109 38.0689 19.2446C38.2125 19.3801 38.2843 19.5436 38.2843 19.7311C38.2843 19.9185 38.2085 20.094 38.061 20.2255C37.5186 20.744 36.8646 21.0032 36.099 21.0032H36.0392C35.2735 21.0032 34.6195 20.744 34.0772 20.2295C33.5388 19.7151 33.2637 19.089 33.2637 18.3593V16.0424C33.2637 15.3126 33.5348 14.6905 34.0772 14.1721" fill="white"/>
<path d="M40.9648 16.2178L42.5559 17.135C43.2697 17.5458 43.6286 18.1399 43.6286 18.9215C43.6286 19.1209 43.6007 19.3163 43.5449 19.5077C43.4173 19.9663 43.1541 20.3412 42.7593 20.6243C42.3645 20.9075 41.9179 21.047 41.4234 21.047H41.3835C40.5381 21.047 39.8522 20.728 39.3298 20.082C39.2381 19.9703 39.1902 19.8387 39.1902 19.6912C39.1902 19.4838 39.278 19.3123 39.4534 19.1807C39.5731 19.093 39.7086 19.0492 39.8682 19.0492C40.0875 19.0492 40.2669 19.1329 40.4065 19.2964C40.6537 19.5995 40.9807 19.755 41.3875 19.755H41.4274C41.6746 19.755 41.882 19.6752 42.0415 19.5157C42.201 19.3522 42.2808 19.1568 42.2808 18.9215C42.2808 18.6185 42.1372 18.3872 41.8541 18.2277L40.2749 17.3145C39.5531 16.9077 39.1902 16.3096 39.1902 15.5279C39.1902 15.3286 39.2181 15.1332 39.274 14.9417C39.4096 14.4792 39.6728 14.1083 40.0596 13.8252C40.4464 13.542 40.893 13.4025 41.3955 13.4025H41.4393C42.2887 13.4025 42.9746 13.7295 43.493 14.3795C43.5848 14.5031 43.6286 14.6307 43.6286 14.7703C43.6286 14.9856 43.5369 15.1571 43.3535 15.2807C43.2338 15.3684 43.1022 15.4123 42.9547 15.4123C42.7234 15.4123 42.54 15.3286 42.4044 15.1651C42.1571 14.85 41.8301 14.6945 41.4274 14.6945H41.3875C41.1403 14.6945 40.9369 14.7743 40.7774 14.9378C40.6179 15.0973 40.5381 15.2967 40.5381 15.5319C40.5381 15.835 40.6817 16.0663 40.9648 16.2218" fill="white"/>
<path d="M48.9183 14.1214C48.4158 13.6429 47.8057 13.3996 47.0919 13.3996H47.036C47.0002 13.3996 46.9643 13.3996 46.9244 13.4036C46.2584 13.4275 45.6842 13.6628 45.2096 14.1174C44.7072 14.5959 44.452 15.1781 44.452 15.8601V18.5319C44.452 18.5558 44.452 18.5717 44.452 18.5957V30.2719L45.7958 31.0535V20.7052C46.1667 20.9006 46.5774 20.9963 47.0321 20.9963H47.0879C47.1278 20.9963 47.1637 20.9963 47.1995 20.9923C47.8655 20.9684 48.4397 20.7291 48.9143 20.2785C49.4167 19.8 49.672 19.2178 49.672 18.5359V15.864C49.672 15.1821 49.4207 14.6039 48.9143 14.1214M48.3241 18.5119C48.3241 18.8429 48.2005 19.1221 47.9612 19.3533C47.718 19.5846 47.4268 19.7003 47.0879 19.7003H47.0321C46.6931 19.7003 46.402 19.5846 46.1587 19.3533C45.9155 19.1221 45.7958 18.8389 45.7958 18.5119V15.8561C45.7958 15.5331 45.9155 15.2579 46.1587 15.0226C46.402 14.7913 46.6931 14.6757 47.0321 14.6757H47.0879C47.4268 14.6757 47.718 14.7913 47.9612 15.0226C48.2045 15.2539 48.3241 15.5331 48.3241 15.8561V18.5119Z" fill="white"/>
</svg>
