<svg width="15" height="15" viewBox="0 0 15 15" fill="none" xmlns="http://www.w3.org/2000/svg">
<path d="M4.52553 14.5H10.1255C12.9395 14.5 13.4435 13.373 13.5905 12.001L14.1155 6.401C14.3045 4.693 13.8145 3.3 10.8255 3.3H3.82553C0.836532 3.3 0.346532 4.693 0.535532 6.401L1.06053 12.001C1.20753 13.373 1.71153 14.5 4.52553 14.5Z" stroke="#F26F22" stroke-miterlimit="10" stroke-linecap="round" stroke-linejoin="round"/>
<path d="M4.52548 3.3V2.74C4.52548 1.501 4.52548 0.5 6.76548 0.5H7.88548C10.1255 0.5 10.1255 1.501 10.1255 2.74V3.3" stroke="#F26F22" stroke-miterlimit="10" stroke-linecap="round" stroke-linejoin="round"/>
<path d="M8.72548 8.2V8.9C8.72548 8.907 8.72548 8.907 8.72548 8.914C8.72548 9.677 8.71848 10.3 7.32548 10.3C5.93948 10.3 5.92548 9.684 5.92548 8.921V8.2C5.92548 7.5 5.92548 7.5 6.62548 7.5H8.02548C8.72548 7.5 8.72548 7.5 8.72548 8.2Z" stroke="#F26F22" stroke-miterlimit="10" stroke-linecap="round" stroke-linejoin="round"/>
<path d="M14.0805 6.8C12.4635 7.976 10.6155 8.676 8.72549 8.914" stroke="#F26F22" stroke-miterlimit="10" stroke-linecap="round" stroke-linejoin="round"/>
<path d="M0.759552 6.989C2.33455 8.067 4.11255 8.718 5.92555 8.921" stroke="#F26F22" stroke-miterlimit="10" stroke-linecap="round" stroke-linejoin="round"/>
</svg>
