<svg width="20" height="18" viewBox="0 0 20 18" fill="none" xmlns="http://www.w3.org/2000/svg">
<path fill-rule="evenodd" clip-rule="evenodd" d="M2.45148 2.31358C1.81896 2.90091 1.39535 3.85391 1.39535 5.34884V11.8605C1.39535 13.3554 1.81896 14.3084 2.45148 14.8957C3.09335 15.4918 4.06044 15.814 5.34884 15.814H14.6512C15.9396 15.814 16.9066 15.4918 17.5485 14.8957C18.181 14.3084 18.6047 13.3554 18.6047 11.8605V5.34884C18.6047 3.85391 18.181 2.90091 17.5485 2.31358C16.9066 1.71755 15.9396 1.39535 14.6512 1.39535H5.34884C4.06044 1.39535 3.09335 1.71755 2.45148 2.31358ZM1.50201 1.29107C2.48804 0.375473 3.84654 0 5.34884 0H14.6512C16.1535 0 17.512 0.375473 18.498 1.29107C19.4934 2.21537 20 3.58795 20 5.34884V11.8605C20 13.6213 19.4934 14.9939 18.498 15.9182C17.512 16.8338 16.1535 17.2093 14.6512 17.2093H5.34884C3.84654 17.2093 2.48804 16.8338 1.50201 15.9182C0.506619 14.9939 0 13.6213 0 11.8605V5.34884C0 3.58795 0.506619 2.21537 1.50201 1.29107Z" fill="#F26F22"/>
<path fill-rule="evenodd" clip-rule="evenodd" d="M6.5116 8.60464C6.5116 6.67803 8.07335 5.11627 9.99997 5.11627C11.9266 5.11627 13.4883 6.67803 13.4883 8.60464C13.4883 10.5313 11.9266 12.093 9.99997 12.093C8.07335 12.093 6.5116 10.5313 6.5116 8.60464ZM9.99997 6.51162C8.84398 6.51162 7.90695 7.44866 7.90695 8.60464C7.90695 9.76063 8.84398 10.6977 9.99997 10.6977C11.156 10.6977 12.093 9.76063 12.093 8.60464C12.093 7.44866 11.156 6.51162 9.99997 6.51162Z" fill="#F26F22"/>
<path fill-rule="evenodd" clip-rule="evenodd" d="M3.95353 5.58139C4.33885 5.58139 4.65121 5.89375 4.65121 6.27906V10.9302C4.65121 11.3155 4.33885 11.6279 3.95353 11.6279C3.56822 11.6279 3.25586 11.3155 3.25586 10.9302V6.27906C3.25586 5.89375 3.56822 5.58139 3.95353 5.58139Z" fill="#F26F22"/>
<path fill-rule="evenodd" clip-rule="evenodd" d="M16.0466 5.58139C16.4319 5.58139 16.7442 5.89375 16.7442 6.27906V10.9302C16.7442 11.3155 16.4319 11.6279 16.0466 11.6279C15.6612 11.6279 15.3489 11.3155 15.3489 10.9302V6.27906C15.3489 5.89375 15.6612 5.58139 16.0466 5.58139Z" fill="#F26F22"/>
</svg>
