<svg width="20" height="20" viewBox="0 0 20 20" fill="none" xmlns="http://www.w3.org/2000/svg">
<path d="M15.227 7.78614H10.3433C9.96191 7.78614 9.64563 7.46986 9.64563 7.08847C9.64563 6.70707 9.96191 6.39079 10.3433 6.39079H15.227C15.6084 6.39079 15.9247 6.70707 15.9247 7.08847C15.9247 7.46986 15.6177 7.78614 15.227 7.78614Z" fill="#F26F22"/>
<path d="M5.46077 8.49285C5.28403 8.49285 5.10728 8.42773 4.96775 8.2882L4.27007 7.59054C4.00031 7.32077 4.00031 6.87426 4.27007 6.6045C4.53984 6.33473 4.98635 6.33473 5.25612 6.6045L5.46077 6.80915L7.06077 5.20915C7.33054 4.93938 7.77705 4.93938 8.04682 5.20915C8.31654 5.47891 8.31654 5.92543 8.04682 6.19519L5.9538 8.2882C5.82356 8.41843 5.64682 8.49285 5.46077 8.49285Z" fill="#F26F22"/>
<path d="M15.227 14.2978H10.3433C9.96191 14.2978 9.64563 13.9815 9.64563 13.6001C9.64563 13.2187 9.96191 12.9024 10.3433 12.9024H15.227C15.6084 12.9024 15.9247 13.2187 15.9247 13.6001C15.9247 13.9815 15.6177 14.2978 15.227 14.2978Z" fill="#F26F22"/>
<path d="M5.46077 15.0045C5.28403 15.0045 5.10728 14.9394 4.96775 14.7998L4.27007 14.1022C4.00031 13.8324 4.00031 13.3859 4.27007 13.1161C4.53984 12.8464 4.98635 12.8464 5.25612 13.1161L5.46077 13.3208L7.06077 11.7208C7.33054 11.451 7.77705 11.451 8.04682 11.7208C8.31654 11.9905 8.31654 12.4371 8.04682 12.7068L5.9538 14.7998C5.82356 14.9301 5.64682 15.0045 5.46077 15.0045Z" fill="#F26F22"/>
<path d="M12.7907 20H7.2093C2.15814 20 0 17.8419 0 12.7907V7.2093C0 2.15814 2.15814 0 7.2093 0H12.7907C17.8419 0 20 2.15814 20 7.2093V12.7907C20 17.8419 17.8419 20 12.7907 20ZM7.2093 1.39535C2.92093 1.39535 1.39535 2.92093 1.39535 7.2093V12.7907C1.39535 17.0791 2.92093 18.6047 7.2093 18.6047H12.7907C17.0791 18.6047 18.6047 17.0791 18.6047 12.7907V7.2093C18.6047 2.92093 17.0791 1.39535 12.7907 1.39535H7.2093Z" fill="#F26F22"/>
</svg>
