<svg width="36" height="30" viewBox="0 0 36 30" fill="none" xmlns="http://www.w3.org/2000/svg">
<path d="M12.2727 13.6365H7.49987C6.93165 13.6365 6.44858 13.4377 6.05081 13.0399C5.65326 12.6421 5.45423 12.1592 5.45423 11.5909V10.9093C5.45423 9.40357 5.987 8.11817 7.05247 7.05269C8.11787 5.9876 9.40349 5.45482 10.9091 5.45482H12.2727C12.6419 5.45482 12.9614 5.31982 13.2314 5.05004C13.5013 4.78011 13.6362 4.46062 13.6362 4.09129V1.36376C13.6362 0.9945 13.5012 0.674717 13.2314 0.404785C12.9615 0.135227 12.642 0 12.2727 0H10.9091C9.4317 0 8.02219 0.287917 6.6797 0.86293C5.33736 1.43832 4.17629 2.21609 3.19604 3.19634C2.21587 4.17614 1.43832 5.33728 0.863004 6.67978C0.287693 8.02212 0 9.432 0 10.9093V25.9089C0 27.0459 0.397546 28.0113 1.19301 28.8071C1.98855 29.6024 2.95469 30 4.09099 30H12.2732C13.4094 30 14.3752 29.6024 15.1709 28.8071C15.9662 28.0113 16.3639 27.0459 16.3639 25.9089V17.7275C16.3639 16.5907 15.9662 15.6253 15.1703 14.8295C14.3751 14.0343 13.4089 13.6365 12.2727 13.6365Z" fill="#C5E1F1"/>
<path d="M34.2629 14.8295C33.4676 14.0343 32.5017 13.6365 31.3652 13.6365H26.5925C26.0246 13.6365 25.541 13.4377 25.1439 13.0399C24.746 12.6421 24.5474 12.1592 24.5474 11.5909V10.9093C24.5474 9.40357 25.0801 8.11817 26.1451 7.05269C27.2101 5.9876 28.4957 5.45482 30.002 5.45482H31.3653C31.7346 5.45482 32.0543 5.31982 32.3241 5.05004C32.5937 4.78011 32.7292 4.46062 32.7292 4.09129V1.36376C32.7292 0.9945 32.5938 0.674717 32.3241 0.404785C32.0544 0.135227 31.7347 0 31.3653 0H30.002C28.5238 0 27.1146 0.287917 25.7717 0.86293C24.4296 1.43832 23.2689 2.21609 22.2887 3.19634C21.3084 4.17614 20.5305 5.33728 19.9554 6.67978C19.3802 8.02212 19.0922 9.432 19.0922 10.9093V25.9089C19.0922 27.0459 19.4901 28.0113 20.2853 28.8071C21.0806 29.6024 22.0466 30 23.183 30H31.3647C32.5013 30 33.4671 29.6024 34.2623 28.8071C35.0582 28.0113 35.4553 27.0459 35.4553 25.9089V17.7275C35.4554 16.5907 35.0582 15.6253 34.2629 14.8295Z" fill="#C5E1F1"/>
</svg>
