<svg width="19" height="18" viewBox="0 0 19 18" fill="none" xmlns="http://www.w3.org/2000/svg">
<path d="M18.2297 13.0597V2.52291C18.2297 1.47534 17.3742 0.698392 16.3354 0.78569H16.283C14.4498 0.942825 11.665 1.87691 10.1111 2.85464L9.96268 2.95066C9.70951 3.1078 9.29049 3.1078 9.03732 2.95066L8.81908 2.81972C7.26519 1.85072 4.48914 0.925365 2.65589 0.77696C1.61705 0.689663 0.77027 1.47534 0.77027 2.51418V13.0597C0.77027 13.8977 1.45119 14.6834 2.28924 14.7881L2.54241 14.8231C4.43676 15.0762 7.36122 16.0365 9.03732 16.9531L9.07224 16.9706C9.30795 17.1015 9.68332 17.1015 9.9103 16.9706C11.5864 16.0452 14.5196 15.0762 16.4227 14.8231L16.7108 14.7881C17.5488 14.6834 18.2297 13.8977 18.2297 13.0597Z" stroke="white" stroke-width="1.5" stroke-linecap="round" stroke-linejoin="round"/>
<path d="M9.5 3.2387V16.3333" stroke="white" stroke-width="1.5" stroke-linecap="round" stroke-linejoin="round"/>
<path d="M5.78931 5.8577H3.82512" stroke="white" stroke-width="1.5" stroke-linecap="round" stroke-linejoin="round"/>
<path d="M6.44404 8.4767H3.82512" stroke="white" stroke-width="1.5" stroke-linecap="round" stroke-linejoin="round"/>
</svg>
