<svg width="21" height="18" viewBox="0 0 21 18" fill="none" xmlns="http://www.w3.org/2000/svg">
<path d="M15.341 1.28571C15.341 0.575658 14.8831 0 14.3182 0H1.02272C0.457905 0 -7.62939e-06 0.575658 -7.62939e-06 1.28571C-7.62939e-06 1.99577 0.457905 2.57143 1.02272 2.57143H14.3182C14.8831 2.57143 15.341 1.99572 15.341 1.28571ZM1.02272 7.71428H19.4319C19.9967 7.71428 20.4546 8.28999 20.4546 9C20.4546 9.71006 19.9967 10.2857 19.4319 10.2857H1.02272C0.457905 10.2857 -7.62939e-06 9.71006 -7.62939e-06 9C-7.62939e-06 8.28999 0.457905 7.71428 1.02272 7.71428ZM1.02272 15.4286H10.2273C10.7921 15.4286 11.25 16.0042 11.25 16.7143C11.25 17.4243 10.7921 18 10.2273 18H1.02272C0.457905 18 -7.62939e-06 17.4243 -7.62939e-06 16.7143C-7.62939e-06 16.0042 0.457905 15.4286 1.02272 15.4286Z" fill="#FF7A2F"/>
</svg>
