<svg width="21" height="18" viewBox="0 0 21 18" fill="none" xmlns="http://www.w3.org/2000/svg">
<path d="M5.89412 0.767849H15.1059C15.7381 0.767849 16.3023 0.78733 16.8081 0.855421C19.5026 1.15697 20.2322 2.4215 20.2322 5.88441V12.0321C20.2322 15.495 19.5026 16.7595 16.8081 17.0611C16.3023 17.1292 15.7479 17.1486 15.1059 17.1486H5.89412C5.26185 17.1486 4.69766 17.1292 4.19184 17.0611C1.49739 16.7595 0.767849 15.495 0.767849 12.0321V5.88441C0.767849 2.4215 1.49739 1.15697 4.19184 0.855421C4.69766 0.78733 5.26185 0.767849 5.89412 0.767849Z" stroke="#474747" stroke-width="1.5" stroke-linecap="round" stroke-linejoin="round"/>
<path d="M12.0415 6.91549H15.6211" stroke="#474747" stroke-width="1.5" stroke-linecap="round" stroke-linejoin="round"/>
<path d="M5.38819 12.5476H5.40764H15.631" stroke="#474747" stroke-width="1.5" stroke-linecap="round" stroke-linejoin="round"/>
<path d="M5.82947 6.89611H5.83821" stroke="#474747" stroke-width="2" stroke-linecap="round" stroke-linejoin="round"/>
<path d="M9.04025 6.89611H9.04898" stroke="#474747" stroke-width="2" stroke-linecap="round" stroke-linejoin="round"/>
</svg>
