<svg width="20" height="17" viewBox="0 0 20 17" fill="none" xmlns="http://www.w3.org/2000/svg">
<path d="M2.33427 16.8464H17.5784C18.7895 16.8464 19.7378 15.8734 19.7378 14.6446V4.81328C19.7378 3.5845 18.7895 2.61148 17.5784 2.61148H2.33427C1.12317 2.61148 0.174854 3.5845 0.174854 4.81328V14.6446C0.174854 15.8734 1.12317 16.8464 2.33427 16.8464ZM1.2844 4.81328C1.2844 4.23965 1.78027 3.73798 2.33427 3.73798H17.5784C18.1324 3.73798 18.6283 4.23965 18.6283 4.81328V14.6446C18.6283 15.2182 18.1324 15.7199 17.5784 15.7199H2.33427C1.78027 15.7199 1.2844 15.2182 1.2844 14.6446V4.81328Z" fill="#474747" stroke="#474747" stroke-width="0.3"/>
<path d="M12.2096 3.1747C12.2096 3.33154 12.2614 3.4746 12.3638 3.57916C12.4664 3.68401 12.6081 3.73795 12.7644 3.73795C12.9206 3.73795 13.0623 3.68401 13.165 3.57916C13.2674 3.4746 13.3191 3.33154 13.3191 3.1747V1.53614C13.3191 0.79893 12.6918 0.153618 11.962 0.153618H7.95043C7.22073 0.153618 6.59334 0.79893 6.59334 1.53614V3.1747C6.59334 3.33154 6.64512 3.4746 6.74752 3.57916C6.8502 3.68401 6.99188 3.73795 7.14811 3.73795C7.30435 3.73795 7.44603 3.68401 7.54871 3.57916C7.6511 3.4746 7.70289 3.33154 7.70289 3.1747V1.53614C7.70289 1.44721 7.73133 1.38545 7.76934 1.34664C7.80707 1.30811 7.86597 1.28012 7.95043 1.28012H11.962C12.0465 1.28012 12.1054 1.30811 12.1431 1.34664C12.1811 1.38545 12.2096 1.44721 12.2096 1.53614V3.1747Z" fill="#474747" stroke="#474747" stroke-width="0.3"/>
<path d="M9.7446 10.2833L9.76955 10.2921H9.79602H9.79649H9.79695H9.79742H9.79788H9.79834H9.7988H9.79926H9.79972H9.80017H9.80063H9.80108H9.80153H9.80197H9.80242H9.80287H9.80331H9.80375H9.80419H9.80463H9.80506H9.80549H9.80593H9.80636H9.80679H9.80721H9.80764H9.80806H9.80849H9.80891H9.80933H9.80974H9.81016H9.81057H9.81099H9.8114H9.81181H9.81221H9.81262H9.81302H9.81343H9.81383H9.81423H9.81463H9.81502H9.81542H9.81581H9.81621H9.8166H9.81699H9.81738H9.81776H9.81815H9.81853H9.81891H9.81929H9.81967H9.82005H9.82043H9.8208H9.82118H9.82155H9.82192H9.82229H9.82266H9.82302H9.82339H9.82375H9.82411H9.82447H9.82484H9.82519H9.82555H9.82591H9.82626H9.82661H9.82697H9.82732H9.82767H9.82801H9.82836H9.82871H9.82905H9.82939H9.82974H9.83008H9.83042H9.83075H9.83109H9.83143H9.83176H9.83209H9.83243H9.83276H9.83309H9.83342H9.83374H9.83407H9.83439H9.83472H9.83504H9.83536H9.83568H9.836H9.83632H9.83664H9.83695H9.83727H9.83758H9.8379H9.83821H9.83852H9.83883H9.83914H9.83945H9.83975H9.84006H9.84037H9.84067H9.84097H9.84127H9.84157H9.84187H9.84217H9.84247H9.84277H9.84306H9.84336H9.84365H9.84395H9.84424H9.84453H9.84482H9.84511H9.8454H9.84569H9.84598H9.84626H9.84655H9.84683H9.84712H9.8474H9.84768H9.84796H9.84824H9.84852H9.8488H9.84908H9.84936H9.84963H9.84991H9.85018H9.85046H9.85073H9.851H9.85128H9.85155H9.85182H9.85209H9.85236H9.85263H9.85289H9.85316H9.85343H9.85369H9.85396H9.85422H9.85449H9.85475H9.85501H9.85527H9.85553H9.8558H9.85606H9.85631H9.85657H9.85683H9.85709H9.85735H9.8576H9.85786H9.85811H9.85837H9.85862H9.85888H9.85913H9.85938H9.85964H9.85989H9.86014H9.86039H9.86064H9.86089H9.86114H9.86139H9.86164H9.86189H9.86213H9.86238H9.86263H9.86288H9.86312H9.86337H9.86361H9.86386H9.8641H9.86435H9.86459H9.86483H9.86508H9.86532H9.86556H9.8658H9.86605H9.86629H9.86653H9.86677H9.86701H9.86725H9.86749H9.86773H9.86797H9.86821H9.86845H9.86869H9.86893H9.86916H9.8694H9.86964H9.86988H9.87012H9.87035H9.87059H9.87083H9.87106H9.8713H9.87154H9.87177H9.87201H9.87225H9.87248H9.87272H9.87295H9.87319H9.87343H9.87366H9.8739H9.87413H9.87437H9.8746H9.87484H9.87507H9.87531H9.87554H9.87578H9.87601H9.87625H9.87648H9.87672H9.87695H9.87719H9.87742H9.87766H9.87789H9.87813H9.87836H9.8786H9.87884H9.87907H9.87931H9.87954H9.87978H9.88001H9.88025H9.88049H9.88072H9.88096H9.8812H9.88143H9.88167H9.88191H9.88214H9.88238H9.88262H9.88286H9.88309H9.88333H9.88357H9.88381H9.88405H9.88429H9.88453H9.88477H9.88501H9.88525H9.88549H9.88573H9.88597H9.88621H9.88645H9.88669H9.88694H9.88718H9.88742H9.88766H9.88791H9.88815H9.8884H9.88864H9.88888H9.88913H9.88938H9.88962H9.88987H9.89011H9.89036H9.89061H9.89086H9.89111H9.89136H9.89161H9.89186H9.89211H9.89236H9.89261H9.89286H9.89311H9.89337H9.89362H9.89387H9.89413H9.89438H9.89464H9.89489H9.89515H9.89541H9.89567H9.89592H9.89618H9.89644H9.8967H9.89696H9.89722H9.89749H9.89775H9.89801H9.89827H9.89854H9.8988H9.89907H9.89934H9.8996H9.89987H9.90014H9.90041H9.90068H9.90095H9.90122H9.90149H9.90177H9.90204H9.90231H9.90259H9.90286H9.90314H9.90342H9.9037H9.90397H9.90425H9.90453H9.90482H9.9051H9.90538H9.90566H9.90595H9.90623H9.90652H9.90681H9.9071H9.90739H9.90768H9.90797H9.90826H9.90855H9.90884H9.90914H9.90943H9.90973H9.91003H9.91032H9.91062H9.91092H9.91122H9.91153H9.91183H9.91213H9.91244H9.91274H9.91305H9.91336H9.91367H9.91398H9.91429H9.9146H9.91491H9.91523H9.91554H9.91586H9.91618H9.91649H9.91681H9.91713H9.91746H9.91778H9.9181H9.91843H9.91875H9.91908H9.91941H9.91974H9.92007H9.9204H9.92074H9.92107H9.92141H9.92174H9.92208H9.92242H9.92276H9.9231H9.92345H9.92379H9.92414H9.92448H9.92483H9.92518H9.92553H9.92588H9.92624H9.92659H9.92695H9.9273H9.92766H9.92802H9.92838H9.92875H9.92911H9.92947H9.92984H9.93021H9.93058H9.93095H9.93132H9.9317H9.93207H9.93245H9.93282H9.9332H9.93358H9.93397H9.93435H9.93473H9.93512H9.93551H9.9359H9.93629H9.93668H9.93708H9.93747H9.93787H9.93827H9.93867H9.93907H9.93947H9.93988H9.94028H9.94069H9.9411H9.94151H9.94192H9.94234H9.94275H9.94317H9.94359H9.94401H9.94443H9.94486H9.94528H9.94571H9.94614H9.94657H9.947H9.94744H9.94787H9.94831H9.94875H9.94919H9.94963H9.95008H9.95052H9.95097H9.95142H9.95187H9.95232H9.95278H9.95323H9.95369H9.95415H9.95462H9.95508H9.95554H9.95601H9.95648L9.96038 10.2921C9.9766 10.2921 9.99987 10.2922 10.0202 10.2899C10.0414 10.2874 10.0934 10.2796 10.1364 10.2357C10.1576 10.2141 10.17 10.1905 10.1773 10.1696L19.3129 6.92489C19.3132 6.92478 19.3136 6.92467 19.3139 6.92456C19.457 6.87566 19.578 6.79346 19.6421 6.66268C19.706 6.53219 19.6975 6.38518 19.6501 6.24023C19.6029 6.0956 19.5231 5.97149 19.3934 5.90531C19.2632 5.8388 19.1164 5.84795 18.9732 5.8967L18.9732 5.89667L18.9705 5.89765L9.95648 9.15588L0.942464 5.89765L0.942473 5.89763L0.939743 5.8967C0.77234 5.83972 0.6087 5.87002 0.479406 5.93603C0.352439 6.00085 0.246766 6.10576 0.190656 6.22035L0.185927 6.23001L0.182589 6.24023C0.127702 6.40837 0.156691 6.57284 0.220744 6.70365C0.283645 6.83211 0.38608 6.94032 0.499464 6.99821L0.508423 7.00278L0.517903 7.00615L9.7446 10.2833Z" fill="#474747" stroke="#474747" stroke-width="0.3"/>
</svg>
