<svg width="17" height="14" viewBox="0 0 17 14" fill="none" xmlns="http://www.w3.org/2000/svg">
<path fill-rule="evenodd" clip-rule="evenodd" d="M8.63117 9.30502C8.90534 9.03167 9.34991 9.03167 9.62409 9.30502L12.6382 12.31L15.6522 9.30502C15.9264 9.03167 16.371 9.03167 16.6452 9.30502C16.9193 9.57837 16.9193 10.0216 16.6452 10.295L13.1346 13.795C12.8605 14.0683 12.4159 14.0683 12.1417 13.795L8.63117 10.295C8.35699 10.0216 8.35699 9.57837 8.63117 9.30502Z" fill="#F26F22"/>
<path fill-rule="evenodd" clip-rule="evenodd" d="M12.6385 4.20001C13.0263 4.20001 13.3406 4.5134 13.3406 4.90001V13.3C13.3406 13.6866 13.0263 14 12.6385 14C12.2507 14 11.9364 13.6866 11.9364 13.3V4.90001C11.9364 4.5134 12.2507 4.20001 12.6385 4.20001Z" fill="#F26F22"/>
<path fill-rule="evenodd" clip-rule="evenodd" d="M0 6.30001C0 5.9134 0.314348 5.60001 0.702108 5.60001H7.02108C7.40885 5.60001 7.72318 5.9134 7.72318 6.30001C7.72318 6.68662 7.40885 7.00001 7.02108 7.00001H0.702108C0.314348 7.00001 0 6.68662 0 6.30001Z" fill="#F26F22"/>
<path fill-rule="evenodd" clip-rule="evenodd" d="M0 0.7C0 0.313404 0.314348 0 0.702107 0H12.6379C13.0257 0 13.34 0.313404 13.34 0.7C13.34 1.0866 13.0257 1.4 12.6379 1.4H0.702107C0.314348 1.4 0 1.0866 0 0.7Z" fill="#F26F22"/>
<path fill-rule="evenodd" clip-rule="evenodd" d="M0 11.9C0 11.5134 0.314348 11.2 0.702108 11.2H5.61686C6.00463 11.2 6.31897 11.5134 6.31897 11.9C6.31897 12.2866 6.00463 12.6 5.61686 12.6H0.702108C0.314348 12.6 0 12.2866 0 11.9Z" fill="#F26F22"/>
</svg>
