<svg width="25" height="23" viewBox="0 0 25 23" fill="none" xmlns="http://www.w3.org/2000/svg">
<g opacity="0.5">
<path d="M10.058 1.27751L2.52378 5.45932C0.108333 6.80005 0.108333 9.80074 2.52378 11.1415L10.058 15.3233C11.4096 16.0788 13.6373 16.0788 14.989 15.3233L22.4856 11.1415C24.8885 9.80074 24.8885 6.81069 22.4856 5.46996L14.989 1.28815C13.6373 0.522014 11.4096 0.522014 10.058 1.27751Z" stroke="#2B2A2A" stroke-width="1.4" stroke-linecap="round" stroke-linejoin="round"/>
<path d="M4.52617 12.5034L4.51366 17.494C4.51366 18.8453 5.74015 20.2925 7.24198 20.7181L11.2343 21.846C11.9227 22.0376 13.0616 22.0376 13.7624 21.846L17.7548 20.7181C19.2566 20.2925 20.4831 18.8453 20.4831 17.494V12.5567" stroke="#2B2A2A" stroke-width="1.4" stroke-linecap="round" stroke-linejoin="round"/>
<path d="M24.2623 16.9835V9.4744" stroke="#2B2A2A" stroke-width="1.4" stroke-linecap="round" stroke-linejoin="round"/>
</g>
</svg>
