<svg width="19" height="23" viewBox="0 0 19 23" fill="none" xmlns="http://www.w3.org/2000/svg">
<g opacity="0.5">
<path d="M0.911745 7.60664C2.93071 -1.65968 16.0796 -1.64898 18.0883 7.61734C19.2669 13.053 16.0283 17.6541 13.1895 20.5003C11.1295 22.5761 7.8705 22.5761 5.80029 20.5003C2.9717 17.6541 -0.266835 13.0423 0.911745 7.60664Z" stroke="#2B2A2A" stroke-width="1.3"/>
<path d="M9.68771 15.2894C12.2698 15.2894 14.3629 13.1963 14.3629 10.6142C14.3629 8.03215 12.2698 5.93898 9.68771 5.93898C7.10565 5.93898 5.01248 8.03215 5.01248 10.6142C5.01248 13.1963 7.10565 15.2894 9.68771 15.2894Z" stroke="#2B2A2A" stroke-linecap="round" stroke-linejoin="round"/>
<path d="M9.68648 12.4862C10.7193 12.4862 11.5566 11.649 11.5566 10.6161C11.5566 9.58331 10.7193 8.74604 9.68648 8.74604C8.65366 8.74604 7.81639 9.58331 7.81639 10.6161C7.81639 11.649 8.65366 12.4862 9.68648 12.4862Z" stroke="#2B2A2A" stroke-linecap="round" stroke-linejoin="round"/>
<path d="M9.68636 5.62914V4.38241" stroke="#2B2A2A" stroke-linecap="round" stroke-linejoin="round"/>
<path d="M4.69847 10.616H3.45174" stroke="#2B2A2A" stroke-linecap="round" stroke-linejoin="round"/>
<path d="M9.68636 15.6001V16.8468" stroke="#2B2A2A" stroke-linecap="round" stroke-linejoin="round"/>
<path d="M14.6715 10.616H15.9183" stroke="#2B2A2A" stroke-linecap="round" stroke-linejoin="round"/>
</g>
</svg>
