<svg width="22" height="23" viewBox="0 0 22 23" fill="none" xmlns="http://www.w3.org/2000/svg">
<path d="M8.05766 10.2587C7.95055 10.248 7.82201 10.248 7.70419 10.2587C5.1549 10.1731 3.13047 8.08435 3.13047 5.51364C3.13047 2.88937 5.2513 0.757824 7.88628 0.757824C10.5106 0.757824 12.6421 2.88937 12.6421 5.51364C12.6314 8.08435 10.607 10.1731 8.05766 10.2587Z" stroke="white" stroke-width="1.5" stroke-linecap="round" stroke-linejoin="round"/>
<path d="M15.8236 2.90015C17.9016 2.90015 19.5726 4.58183 19.5726 6.64911C19.5726 8.67354 17.9659 10.3231 15.9629 10.3981C15.8772 10.3873 15.7808 10.3873 15.6844 10.3981" stroke="white" stroke-width="1.5" stroke-linecap="round" stroke-linejoin="round"/>
<path d="M2.70193 14.2112C0.109791 15.9464 0.109791 18.7742 2.70193 20.4987C5.64753 22.4696 10.4784 22.4696 13.424 20.4987C16.0161 18.7635 16.0161 15.9357 13.424 14.2112C10.4891 12.251 5.65824 12.251 2.70193 14.2112Z" stroke="white" stroke-width="1.5" stroke-linecap="round" stroke-linejoin="round"/>
<path d="M17.8895 20.0381C18.6608 19.8775 19.3891 19.5668 19.989 19.1063C21.6599 17.853 21.6599 15.7858 19.989 14.5325C19.3998 14.0827 18.6822 13.7827 17.9217 13.6114" stroke="white" stroke-width="1.5" stroke-linecap="round" stroke-linejoin="round"/>
</svg>
