<svg width="18" height="18" viewBox="0 0 18 18" fill="none" xmlns="http://www.w3.org/2000/svg">
<path d="M17.2286 9V13.1143C17.2286 15.5829 15.5829 17.2286 13.1143 17.2286H4.88571C2.41714 17.2286 0.771429 15.5829 0.771429 13.1143V9C0.771429 6.76183 2.12091 5.1984 4.2192 4.93508C4.43314 4.90217 4.65531 4.88571 4.88571 4.88571H13.1143C13.3282 4.88571 13.5339 4.89393 13.7314 4.92685C15.8544 5.1737 17.2286 6.74537 17.2286 9Z" stroke="#474747" stroke-width="1.5" stroke-linecap="round" stroke-linejoin="round"/>
<path d="M13.7328 4.92686C13.5353 4.89394 13.3296 4.88572 13.1156 4.88572H4.88705C4.65665 4.88572 4.43448 4.90218 4.22054 4.93509C4.33574 4.70469 4.50031 4.49075 4.6978 4.29327L7.37208 1.61074C8.4994 0.491657 10.3261 0.491657 11.4535 1.61074L12.8935 3.06722C13.4201 3.58562 13.6999 4.24388 13.7328 4.92686Z" stroke="#474747" stroke-width="1.5" stroke-linecap="round" stroke-linejoin="round"/>
<path d="M17.2286 9.41141H14.76C13.8549 9.41141 13.1143 10.152 13.1143 11.0571C13.1143 11.9623 13.8549 12.7028 14.76 12.7028H17.2286" stroke="#474747" stroke-width="1.5" stroke-linecap="round" stroke-linejoin="round"/>
</svg>
