<svg width="19" height="20" viewBox="0 0 19 20" fill="none" xmlns="http://www.w3.org/2000/svg">
<path fill-rule="evenodd" clip-rule="evenodd" d="M11.6961 0.619264C11.6968 0.619768 11.6976 0.620273 11.6983 0.620777L17.2671 4.2744C19.4734 5.72228 19.4735 8.95232 17.2672 10.4002L11.6946 14.0563C11.6945 14.0564 11.6947 14.0563 11.6946 14.0563C11.0536 14.4776 10.2467 14.6665 9.47838 14.6665C8.71028 14.6665 7.90391 14.4779 7.26303 14.0569C7.26275 14.0567 7.26246 14.0565 7.26218 14.0563L1.66309 10.4011C-0.554356 8.95345 -0.554366 5.71189 1.66308 4.26423L7.26218 0.608994C7.26249 0.608785 7.26281 0.608577 7.26313 0.608369C7.90403 0.18737 8.71065 -0.00133718 9.4796 7.12973e-06C10.248 0.00135055 11.0549 0.192647 11.6961 0.619264ZM9.47716 1.3956C8.91602 1.39462 8.39259 1.53601 8.02882 1.77516L8.02695 1.77639L2.426 5.43283C2.426 5.43283 2.426 5.43283 2.426 5.43283C1.05213 6.32977 1.05212 8.33556 2.42599 9.2325C2.42599 9.23249 2.42599 9.2325 2.42599 9.2325L8.02882 12.8902C8.39263 13.1293 8.91636 13.2709 9.47838 13.2709C10.0404 13.2709 10.5641 13.1293 10.9279 12.8902L16.5015 9.23341C17.8679 8.33669 17.8679 6.33794 16.5015 5.44122L10.9242 1.782C10.5609 1.53979 10.0383 1.39658 9.47716 1.3956Z" fill="#F26F22"/>
<path fill-rule="evenodd" clip-rule="evenodd" d="M3.53476 10.3099C3.92014 10.3108 4.23189 10.6238 4.23107 11.0092L4.22176 15.3713C4.22176 15.3711 4.22176 15.3715 4.22176 15.3713C4.22194 15.789 4.38693 16.2616 4.68576 16.6767C4.98476 17.0921 5.37912 17.3971 5.77265 17.5283C5.77256 17.5283 5.77273 17.5283 5.77265 17.5283L8.73723 18.5134C8.73764 18.5136 8.73804 18.5137 8.73844 18.5138C8.90172 18.567 9.16182 18.6044 9.4564 18.6044C9.74948 18.6044 10.013 18.5674 10.1833 18.5132L13.1469 17.5284C13.1468 17.5284 13.147 17.5284 13.1469 17.5284C13.5404 17.3972 13.935 17.0921 14.234 16.6767C14.533 16.2614 14.698 15.7892 14.698 15.3713V11.0543C14.698 10.6689 15.0104 10.3565 15.3958 10.3565C15.7812 10.3565 16.0936 10.6689 16.0936 11.0543V15.3713C16.0936 16.135 15.8027 16.8863 15.3667 17.492C14.9307 18.0977 14.3111 18.6114 13.5882 18.8524L10.6131 19.841C10.2623 19.9537 9.84323 20 9.4564 20C9.0702 20 8.65166 19.9538 8.30315 19.8398L8.30015 19.8388L5.33219 18.8526C4.60932 18.6116 3.98904 18.0977 3.55309 17.492C3.11706 16.8863 2.82617 16.135 2.82617 15.3713L2.82617 15.3698L2.83548 11.0062C2.8363 10.6209 3.14938 10.3091 3.53476 10.3099Z" fill="#F26F22"/>
<path fill-rule="evenodd" clip-rule="evenodd" d="M18.2054 6.51392C18.5907 6.51392 18.9032 6.82633 18.9032 7.21171V12.7941C18.9032 13.1795 18.5907 13.4919 18.2054 13.4919C17.82 13.4919 17.5076 13.1795 17.5076 12.7941V7.21171C17.5076 6.82633 17.82 6.51392 18.2054 6.51392Z" fill="#F26F22"/>
</svg>
