<svg width="21" height="18" viewBox="0 0 21 18" fill="none" xmlns="http://www.w3.org/2000/svg">
<path d="M15.341 1.28571C15.341 0.575658 14.8831 0 14.3183 0H1.02275C0.457935 0 2.28882e-05 0.575658 2.28882e-05 1.28571C2.28882e-05 1.99577 0.457935 2.57143 1.02275 2.57143H14.3183C14.8831 2.57143 15.341 1.99572 15.341 1.28571ZM1.02275 7.71428H19.4319C19.9967 7.71428 20.4547 8.28999 20.4547 9C20.4547 9.71006 19.9967 10.2857 19.4319 10.2857H1.02275C0.457935 10.2857 2.28882e-05 9.71006 2.28882e-05 9C2.28882e-05 8.28999 0.457935 7.71428 1.02275 7.71428ZM1.02275 15.4286H10.2273C10.7921 15.4286 11.2501 16.0042 11.2501 16.7143C11.2501 17.4243 10.7921 18 10.2273 18H1.02275C0.457935 18 2.28882e-05 17.4243 2.28882e-05 16.7143C2.28882e-05 16.0042 0.457935 15.4286 1.02275 15.4286Z" fill="#2B2A2A"/>
</svg>
