<svg width="26" height="30" viewBox="0 0 26 30" fill="none" xmlns="http://www.w3.org/2000/svg">
<path d="M9.82976 7.64852C6.09711 7.64852 3.06363 10.682 3.06363 14.4146V17.6737C3.06363 18.3616 2.77043 19.4103 2.42085 19.9967L1.12401 22.1506C0.323352 23.4813 0.875919 24.9585 2.34191 25.4547C7.20225 27.0786 12.446 27.0786 17.3063 25.4547C18.6708 25.0036 19.2685 23.391 18.5242 22.1506L17.2274 19.9967C16.8891 19.4103 16.5959 18.3616 16.5959 17.6737V14.4146C16.5959 10.6933 13.5511 7.64852 9.82976 7.64852Z" stroke="#2B2A2A" stroke-width="1.5" stroke-miterlimit="10" stroke-linecap="round"/>
<path d="M11.9158 7.97551C11.5662 7.87402 11.2054 7.79508 10.8332 7.74997C9.75064 7.61465 8.71317 7.69359 7.74336 7.97551C8.07039 7.14102 8.88232 6.55462 9.82958 6.55462C10.7768 6.55462 11.5888 7.14102 11.9158 7.97551Z" stroke="#2B2A2A" stroke-width="1.5" stroke-miterlimit="10" stroke-linecap="round" stroke-linejoin="round"/>
<path d="M13.2127 25.8606C13.2127 27.7213 11.6903 29.2437 9.82965 29.2437C8.90495 29.2437 8.0479 28.8603 7.43895 28.2513C6.83 27.6424 6.44659 26.7854 6.44659 25.8606" stroke="#2B2A2A" stroke-width="1.5" stroke-miterlimit="10"/>
<circle cx="18.9077" cy="7.05882" r="7.05882" fill="#FF7A2F"/>
<path d="M20.9245 9.53091V10.3361H17.578V9.53091H18.8037V5.86169C18.8037 5.71661 18.8078 5.56717 18.8162 5.41338L17.9461 6.17073C17.8959 6.21135 17.8457 6.23746 17.7955 6.24907C17.7481 6.25778 17.7021 6.25778 17.6575 6.24907C17.6157 6.24037 17.578 6.22586 17.5446 6.20555C17.5111 6.18233 17.486 6.15767 17.4693 6.13155L17.143 5.66583L18.9877 4.03361H19.8369V9.53091H20.9245Z" fill="white"/>
</svg>
