<svg width="19" height="18" viewBox="0 0 19 18" fill="none" xmlns="http://www.w3.org/2000/svg">
<path d="M14.0082 17.2286C16.3166 17.2286 18.1879 15.3573 18.1879 13.0489C18.1879 10.7406 16.3166 8.86926 14.0082 8.86926C11.6998 8.86926 9.82856 10.7406 9.82856 13.0489C9.82856 15.3573 11.6998 17.2286 14.0082 17.2286Z" stroke="#474747" stroke-width="1.5" stroke-miterlimit="10" stroke-linecap="round" stroke-linejoin="round"/>
<path d="M15.5671 13.1013H12.4498" stroke="#474747" stroke-width="1.5" stroke-miterlimit="10" stroke-linecap="round" stroke-linejoin="round"/>
<path d="M14.0078 11.5774V14.7034" stroke="#474747" stroke-width="1.5" stroke-miterlimit="10" stroke-linecap="round" stroke-linejoin="round"/>
<path d="M18.1867 5.63903C18.1867 7.35443 17.7426 8.86954 17.046 10.1844C16.2797 9.37458 15.2 8.86958 14.0071 8.86958C11.6995 8.86958 9.8274 10.7417 9.8274 13.0492C9.8274 14.1203 10.2366 15.0955 10.8984 15.8357C10.5762 15.9837 10.2802 16.1056 10.0189 16.1927C9.72288 16.2972 9.23526 16.2972 8.9392 16.1927C6.41399 15.3306 0.771429 11.7344 0.771429 5.63903C0.771429 2.94836 2.93963 0.771429 5.61288 0.771429C7.18896 0.771429 8.5996 1.53774 9.47907 2.71327C10.3585 1.53774 11.7692 0.771429 13.3453 0.771429C16.0185 0.771429 18.1867 2.94836 18.1867 5.63903Z" stroke="#474747" stroke-width="1.5" stroke-linecap="round" stroke-linejoin="round"/>
</svg>
