<svg width="17" height="17" viewBox="0 0 17 17" fill="none" xmlns="http://www.w3.org/2000/svg">
<path d="M8.51809 0.00163702C10.9352 0.00163702 13.3528 0.0032716 15.7699 2.44281e-06C16.1718 -0.000542417 16.5253 0.0899043 16.7791 0.427172C17.0944 0.845624 17.0732 1.37959 16.7088 1.79422C15.9894 2.6126 15.2623 3.4239 14.5385 4.23792C13.6289 5.26062 12.7167 6.28114 11.8137 7.30984C11.7385 7.39538 11.6895 7.53595 11.6889 7.65146C11.6819 10.3965 11.6846 13.1409 11.683 15.8859C11.683 16.5621 11.2053 17.0394 10.5528 16.9974C10.3845 16.9865 10.2026 16.9222 10.0594 16.8323C8.67059 15.9606 7.29049 15.0752 5.90439 14.1996C5.50137 13.9446 5.30475 13.5975 5.30693 13.1148C5.31456 11.3031 5.30802 9.49145 5.31347 7.6798C5.31347 7.51143 5.26772 7.38884 5.15498 7.26243C3.5396 5.45459 1.93075 3.6413 0.319181 1.83019C0.029981 1.5049 -0.0849366 1.14039 0.0675607 0.718672C0.221147 0.292592 0.534311 0.0621164 0.980366 0.0108996C1.08112 -0.000542416 1.1846 0.00218188 1.28645 0.00218188C3.697 0.00218188 6.10754 0.00218188 8.51809 0.00218188V0.00163702ZM1.08003 1.07555C1.13286 1.14039 1.16881 1.18725 1.20802 1.23084C2.87297 3.10298 4.53628 4.9762 6.20558 6.84453C6.32812 6.98129 6.37605 7.11587 6.3755 7.29839C6.36951 9.21848 6.37332 11.1386 6.36842 13.0592C6.36842 13.191 6.40709 13.2646 6.51929 13.3354C7.83131 14.162 9.13952 14.9951 10.4494 15.8254C10.4984 15.8565 10.5512 15.8816 10.6209 15.9197V15.6723C10.6209 12.8941 10.6236 10.1159 10.6155 7.33762C10.6149 7.12241 10.6808 6.97039 10.8197 6.8151C12.4885 4.94678 14.1523 3.07355 15.8167 1.20142C15.8483 1.166 15.8728 1.12405 15.9077 1.07555H1.08003Z" fill="#2B2A2A"/>
</svg>
