<svg width="15" height="15" viewBox="0 0 15 15" fill="none" xmlns="http://www.w3.org/2000/svg">
<path d="M14.479 11.931C14.479 12.183 14.423 12.442 14.304 12.694C14.185 12.946 14.031 13.184 13.828 13.408C13.485 13.786 13.107 14.059 12.68 14.234C12.26 14.409 11.805 14.5 11.315 14.5C10.601 14.5 9.838 14.332 9.033 13.989C8.228 13.646 7.423 13.184 6.625 12.603C5.82 12.015 5.057 11.364 4.329 10.643C3.608 9.915 2.957 9.152 2.376 8.354C1.802 7.556 1.34 6.758 1.004 5.967C0.668 5.169 0.5 4.406 0.5 3.678C0.5 3.202 0.584 2.747 0.752 2.327C0.92 1.9 1.186 1.508 1.557 1.158C2.005 0.717 2.495 0.5 3.013 0.5C3.209 0.5 3.405 0.542 3.58 0.626C3.762 0.71 3.923 0.836 4.049 1.018L5.673 3.307C5.799 3.482 5.89 3.643 5.953 3.797C6.016 3.944 6.051 4.091 6.051 4.224C6.051 4.392 6.002 4.56 5.904 4.721C5.813 4.882 5.68 5.05 5.512 5.218L4.98 5.771C4.903 5.848 4.868 5.939 4.868 6.051C4.868 6.107 4.875 6.156 4.889 6.212C4.91 6.268 4.931 6.31 4.945 6.352C5.071 6.583 5.288 6.884 5.596 7.248C5.911 7.612 6.247 7.983 6.611 8.354C6.989 8.725 7.353 9.068 7.724 9.383C8.088 9.691 8.389 9.901 8.627 10.027C8.662 10.041 8.704 10.062 8.753 10.083C8.809 10.104 8.865 10.111 8.928 10.111C9.047 10.111 9.138 10.069 9.215 9.992L9.747 9.467C9.922 9.292 10.09 9.159 10.251 9.075C10.412 8.977 10.573 8.928 10.748 8.928C10.881 8.928 11.021 8.956 11.175 9.019C11.329 9.082 11.49 9.173 11.665 9.292L13.982 10.937C14.164 11.063 14.29 11.21 14.367 11.385C14.437 11.56 14.479 11.735 14.479 11.931Z" stroke="#F26F22" stroke-miterlimit="10"/>
</svg>
