<svg width="21" height="21" viewBox="0 0 21 21" fill="none" xmlns="http://www.w3.org/2000/svg">
<path d="M19.836 6.31222L13.188 0.912302C11.688 -0.304101 9.3 -0.304101 7.8 0.912302L1.152 6.31222C0.42 6.90337 0 7.76736 0 8.68819V17.8737C0 19.6017 1.476 21 3.3 21H17.7C19.524 21 21 19.6017 21 17.8737V8.68819C21 7.77873 20.58 6.90337 19.848 6.31222H19.836ZM13.188 19.2948H7.788V14.4633C7.788 13.6789 8.46 13.0422 9.288 13.0422H11.688C12.516 13.0422 13.188 13.6789 13.188 14.4633V19.2948ZM19.188 17.8737C19.188 18.6581 18.516 19.2948 17.688 19.2948H14.988V14.4633C14.988 12.7353 13.512 11.337 11.688 11.337H9.288C7.464 11.337 5.988 12.7353 5.988 14.4633V19.2948H3.288C2.46 19.2948 1.788 18.6581 1.788 17.8737V8.68819C1.788 8.26756 1.98 7.88104 2.316 7.6082L8.964 2.20828C9.384 1.86724 9.924 1.67398 10.488 1.67398C11.052 1.67398 11.592 1.86724 12.012 2.20828L18.66 7.6082C18.996 7.88104 19.188 8.26756 19.188 8.68819V17.8737Z" fill="#FF7A2F"/>
</svg>
