<svg width="26" height="26" viewBox="0 0 26 26" fill="none" xmlns="http://www.w3.org/2000/svg">
<path d="M19.1031 5.71637C21.5637 7.42648 23.2615 10.1454 23.606 13.2826" stroke="white" stroke-width="1.5" stroke-linecap="round" stroke-linejoin="round"/>
<path d="M2.52979 13.3441C2.84967 10.2191 4.52287 7.50012 6.95885 5.7777" stroke="white" stroke-width="1.5" stroke-linecap="round" stroke-linejoin="round"/>
<path d="M8.31243 23.8875C9.73957 24.6134 11.3636 25.0194 13.0737 25.0194C14.7223 25.0194 16.2724 24.6503 17.6627 23.9737" stroke="white" stroke-width="1.5" stroke-linecap="round" stroke-linejoin="round"/>
<path d="M13.0728 7.59861C14.9618 7.59861 16.4931 6.06734 16.4931 4.17839C16.4931 2.28946 14.9618 0.758168 13.0728 0.758168C11.184 0.758168 9.65264 2.28946 9.65264 4.17839C9.65264 6.06734 11.184 7.59861 13.0728 7.59861Z" stroke="white" stroke-width="1.5" stroke-linecap="round" stroke-linejoin="round"/>
<path d="M4.17839 22.6328C6.06733 22.6328 7.59861 21.1015 7.59861 19.2126C7.59861 17.3236 6.06733 15.7924 4.17839 15.7924C2.28946 15.7924 0.758168 17.3236 0.758168 19.2126C0.758168 21.1015 2.28946 22.6328 4.17839 22.6328Z" stroke="white" stroke-width="1.5" stroke-linecap="round" stroke-linejoin="round"/>
<path d="M21.8216 22.6328C23.7106 22.6328 25.2418 21.1015 25.2418 19.2126C25.2418 17.3236 23.7106 15.7924 21.8216 15.7924C19.9327 15.7924 18.4014 17.3236 18.4014 19.2126C18.4014 21.1015 19.9327 22.6328 21.8216 22.6328Z" stroke="white" stroke-width="1.5" stroke-linecap="round" stroke-linejoin="round"/>
</svg>
