<svg width="17" height="18" viewBox="0 0 17 18" fill="none" xmlns="http://www.w3.org/2000/svg">
<path d="M6.27414 7.93909C6.19312 7.93099 6.09589 7.93099 6.00676 7.93909C4.07842 7.87427 2.54709 6.29433 2.54709 4.34978C2.54709 2.36473 4.15134 0.752372 6.1445 0.752372C8.12956 0.752372 9.74191 2.36473 9.74191 4.34978C9.73381 6.29433 8.20248 7.87427 6.27414 7.93909Z" stroke="#474747" stroke-width="1.5" stroke-linecap="round" stroke-linejoin="round"/>
<path d="M12.1481 2.37282C13.7199 2.37282 14.9838 3.64488 14.9838 5.20862C14.9838 6.73995 13.7685 7.9877 12.2534 8.04441C12.1886 8.03631 12.1156 8.03631 12.0427 8.04441" stroke="#474747" stroke-width="1.5" stroke-linecap="round" stroke-linejoin="round"/>
<path d="M2.22294 10.9288C0.262184 12.2414 0.262184 14.3804 2.22294 15.6848C4.45106 17.1757 8.10519 17.1757 10.3333 15.6848C12.2941 14.3723 12.2941 12.2333 10.3333 10.9288C8.11329 9.44609 4.45916 9.44609 2.22294 10.9288Z" stroke="#474747" stroke-width="1.5" stroke-linecap="round" stroke-linejoin="round"/>
<path d="M13.7116 15.3365C14.295 15.2149 14.8459 14.98 15.2997 14.6316C16.5636 13.6836 16.5636 12.1199 15.2997 11.1719C14.854 10.8316 14.3112 10.6047 13.7359 10.4751" stroke="#474747" stroke-width="1.5" stroke-linecap="round" stroke-linejoin="round"/>
</svg>
