<svg width="61" height="74" viewBox="0 0 61 74" fill="none" xmlns="http://www.w3.org/2000/svg">
<rect opacity="0.49" width="61" height="68" rx="14" fill="#BEDDF1" fill-opacity="0.54"/>
<rect x="4" y="4" width="53" height="60" rx="11" fill="white"/>
<g opacity="0.28">
<mask id="mask0_1_70" style="mask-type:alpha" maskUnits="userSpaceOnUse" x="4" y="4" width="53" height="60">
<rect x="4" y="4" width="53" height="60" rx="11" fill="white"/>
</mask>
<g mask="url(#mask0_1_70)">
<path d="M30.6839 73.9984C21.5004 73.9984 12.3185 73.9984 3.13496 73.9984C2.04898 73.9984 2.0032 73.9968 2.00004 72.9235C1.99846 72.0096 2.0395 53.1813 2.20682 52.2847C2.45938 50.9272 3.18547 49.8097 4.47349 49.2336C7.70934 47.7845 10.9626 46.3765 14.23 44.9985C15.8526 44.3135 17.5163 43.7279 19.1658 43.106C21.0584 42.3925 22.5737 41.1487 23.9517 39.7139C24.3479 39.3019 24.3337 38.1022 24.0275 37.4109C23.3835 35.9524 22.79 34.4718 22.1523 33.0117C22.0213 32.7134 21.8334 32.4056 21.5903 32.1972C20.839 31.55 20.3655 30.7719 20.2423 29.7806C20.135 28.9203 19.8824 28.0569 19.9203 27.2045C19.9566 26.3979 20.296 25.6056 20.4791 24.8021C20.5486 24.5006 20.6796 24.1313 20.5707 23.8834C19.2795 20.9333 19.5099 17.8569 19.8525 14.7962C20.0071 13.4182 21.0316 12.5564 22.2217 11.925C23.1704 11.4215 24.1364 10.9495 25.0566 10.4018C27.5853 8.89594 30.2403 8.61182 33.0247 9.50839C35.4603 10.2929 37.8343 11.1405 39.5848 13.2099C41.3574 15.3077 41.9983 17.6801 41.6273 20.3287C41.4585 21.5379 41.0307 22.7107 40.745 23.9055C40.6913 24.1328 40.6597 24.4549 40.7781 24.6174C41.449 25.5345 41.5532 26.5526 41.4174 27.626C41.3132 28.461 41.2201 29.2992 41.0496 30.1215C40.9612 30.5477 40.8223 31.0828 40.5145 31.3227C39.2012 32.344 38.9929 33.8956 38.4357 35.2878C38.049 36.2539 37.5675 37.182 37.2029 38.1543C36.9188 38.9104 37.1934 39.5102 37.7854 40.1053C39.4585 41.7895 41.4758 42.8376 43.6588 43.69C47.7218 45.2748 51.7611 46.9227 55.7862 48.6006C57.1058 49.1515 58.3117 49.9155 58.8878 51.355C59.4214 52.6888 59.4608 71.9654 59.3472 73.3686C59.2951 74.011 58.8626 73.9921 58.3906 73.9905C53.6552 73.9826 48.9183 73.9858 44.1829 73.9858C39.6843 73.9858 35.1841 73.9858 30.6854 73.9858V74L30.6839 73.9984Z" fill="#C5E0EF"/>
</g>
</g>
<circle cx="30" cy="67" r="7" fill="#C0DCF0"/>
<path d="M33.2671 65.5241C33.1274 65.3777 32.9344 65.2912 32.7148 65.2912H31.6103V65.2779C31.6103 65.1115 31.5437 64.9518 31.4306 64.8454C31.3175 64.7323 31.1644 64.6657 30.9981 64.6657H29.0019C28.8289 64.6657 28.6759 64.7323 28.5627 64.8454C28.4496 64.9585 28.3831 65.1115 28.3831 65.2779V65.2912H27.2852C27.0656 65.2912 26.8726 65.3777 26.7329 65.5241C26.5932 65.6638 26.5 65.8634 26.5 66.0764V69.39C26.5 69.6096 26.5865 69.8026 26.7329 69.9423C26.8726 70.0821 27.0722 70.1752 27.2852 70.1752H32.7148C32.9344 70.1752 33.1274 70.0887 33.2671 69.9423C33.4068 69.8026 33.5 69.603 33.5 69.39V66.0764C33.5 65.8568 33.4135 65.6638 33.2671 65.5241ZM33.154 69.39H33.1473C33.1473 69.5098 33.1008 69.6163 33.0209 69.6961C32.9411 69.776 32.8346 69.8226 32.7148 69.8226H27.2852C27.1654 69.8226 27.0589 69.776 26.9791 69.6961C26.8992 69.6163 26.8527 69.5098 26.8527 69.39V66.0764C26.8527 65.9566 26.8992 65.8501 26.9791 65.7703C27.0589 65.6904 27.1654 65.6438 27.2852 65.6438H28.5694C28.6692 65.6438 28.749 65.564 28.749 65.4642V65.2712C28.749 65.198 28.7757 65.1315 28.8222 65.0849C28.8688 65.0383 28.9354 65.0117 29.0086 65.0117H30.9981C31.0713 65.0117 31.1378 65.0383 31.1844 65.0849C31.231 65.1315 31.2576 65.198 31.2576 65.2712V65.4642C31.2576 65.564 31.3375 65.6438 31.4373 65.6438H32.7215C32.8413 65.6438 32.9477 65.6904 33.0276 65.7703C33.1074 65.8501 33.154 65.9566 33.154 66.0764V69.39Z" fill="white"/>
<path d="M30.0008 66.0967C29.5483 66.0967 29.1358 66.283 28.843 66.5758C28.5436 66.8752 28.3639 67.2811 28.3639 67.7336C28.3639 68.186 28.5502 68.5986 28.843 68.8914C29.1424 69.1908 29.5483 69.3704 30.0008 69.3704C30.4533 69.3704 30.8658 69.1841 31.1586 68.8914C31.458 68.5919 31.6377 68.186 31.6377 67.7336C31.6377 67.2811 31.4514 66.8685 31.1586 66.5758C30.8658 66.283 30.4533 66.0967 30.0008 66.0967ZM30.9057 68.6452C30.6729 68.8714 30.3535 69.0178 30.0008 69.0178C29.6481 69.0178 29.3288 68.8714 29.0959 68.6452C28.863 68.4123 28.7232 68.0929 28.7232 67.7402C28.7232 67.3876 28.8696 67.0682 29.0959 66.8353C29.3288 66.6024 29.6481 66.4626 30.0008 66.4626C30.3535 66.4626 30.6729 66.609 30.9057 66.8353C31.1386 67.0682 31.2784 67.3876 31.2784 67.7402C31.285 68.0929 31.1386 68.4123 30.9057 68.6452Z" fill="white"/>
<path d="M32.3677 66.7419C32.5478 66.7419 32.6937 66.596 32.6937 66.4159C32.6937 66.2358 32.5478 66.0898 32.3677 66.0898C32.1876 66.0898 32.0417 66.2358 32.0417 66.4159C32.0417 66.596 32.1876 66.7419 32.3677 66.7419Z" fill="white"/>
</svg>
