<svg width="101" height="31" viewBox="0 0 101 31" fill="none" xmlns="http://www.w3.org/2000/svg">
<path d="M2.16206 31C0.649811 31 -0.31488 29.3864 0.400406 28.054L5.24565 19.0287C6.15329 17.338 6.19752 15.3152 5.36463 13.5864L0.200661 2.86808C-0.439102 1.5402 0.528481 1.19595e-06 2.00245 1.17837e-06L6.69023 1.12247e-06L94.8189 9.08946e-06C98.1326 9.38902e-06 100.819 2.6863 100.819 6.00001L100.819 25C100.819 28.3137 98.1336 31 94.8199 31C74.4846 31 9.28334 31 6.69023 31C5.32997 31 3.63224 31 2.16206 31Z" fill="#F26F22"/>
</svg>
