<svg width="15" height="18" viewBox="0 0 15 18" fill="none" xmlns="http://www.w3.org/2000/svg">
<path d="M7.5049 8.50001C8.742 8.50001 9.81308 8.08119 10.6885 7.25485C11.5636 6.42865 12.0075 5.41775 12.0075 4.24987C12.0075 3.08239 11.5638 2.07135 10.6883 1.24489C9.81294 0.418821 8.74185 0 7.5049 0C6.26766 0 5.19672 0.418821 4.32145 1.24502C3.44618 2.07122 3.00234 3.08226 3.00234 4.24987C3.00234 5.41775 3.44618 6.42879 4.32145 7.25499C5.197 8.08105 6.26809 8.50001 7.5049 8.50001ZM5.09617 1.97617C5.76777 1.34222 6.55561 1.03406 7.5049 1.03406C8.45404 1.03406 9.24203 1.34222 9.91377 1.97617C10.5854 2.61026 10.912 3.35407 10.912 4.24987C10.912 5.14594 10.5854 5.88961 9.91377 6.5237C9.24203 7.15779 8.45404 7.46594 7.5049 7.46594C6.5559 7.46594 5.76806 7.15765 5.09617 6.5237C4.42442 5.88975 4.09782 5.14594 4.09782 4.24987C4.09782 3.35407 4.42442 2.61026 5.09617 1.97617Z" fill="#474747"/>
<path d="M14.9721 13.7541C14.9479 13.396 14.8987 13.0054 14.8264 12.5929C14.7534 12.1773 14.6594 11.7845 14.5468 11.4254C14.4304 11.0543 14.2725 10.6878 14.0769 10.3366C13.8742 9.97208 13.6359 9.65466 13.3686 9.39346C13.089 9.12021 12.7467 8.90051 12.3509 8.74026C11.9564 8.58085 11.5193 8.50009 11.0517 8.50009C10.868 8.50009 10.6904 8.57706 10.3475 8.80517C10.1364 8.9458 9.88948 9.10843 9.61388 9.28831C9.37823 9.44169 9.05899 9.5854 8.66468 9.71551C8.27998 9.84267 7.88937 9.90717 7.50371 9.90717C7.11832 9.90717 6.72771 9.84267 6.34274 9.71551C5.94884 9.58554 5.62946 9.44183 5.39422 9.28845C5.12124 9.11025 4.87419 8.94762 4.65995 8.80503C4.31724 8.57692 4.13965 8.49995 3.95601 8.49995C3.48827 8.49995 3.05128 8.58085 2.65697 8.7404C2.26142 8.90037 1.91899 9.12007 1.63914 9.3936C1.37178 9.65494 1.13352 9.97222 0.930947 10.3366C0.735644 10.6878 0.577536 11.0542 0.46115 11.4256C0.348745 11.7846 0.254731 12.1773 0.181715 12.5929C0.109249 13.0048 0.0602515 13.3956 0.0359588 13.7545C0.0120777 14.1054 0 14.4706 0 14.8396C0 15.7989 0.298512 16.5755 0.887165 17.1482C1.46854 17.7134 2.23768 18 3.17329 18H11.8352C12.7706 18 13.5397 17.7134 14.1212 17.1482C14.71 16.5759 15.0085 15.7991 15.0085 14.8395C15.0084 14.4692 14.9962 14.104 14.9721 13.7541ZM13.3944 16.368C13.0102 16.7415 12.5002 16.9231 11.8351 16.9231H3.17329C2.50805 16.9231 1.99804 16.7415 1.61403 16.3681C1.23728 16.0018 1.05419 15.5017 1.05419 14.8396C1.05419 14.4953 1.06531 14.1553 1.08755 13.8289C1.10923 13.5087 1.15356 13.1569 1.2193 12.7831C1.28422 12.414 1.36684 12.0676 1.46511 11.7539C1.5594 11.4532 1.688 11.1554 1.84748 10.8685C1.99969 10.5951 2.17482 10.3606 2.36806 10.1716C2.54882 9.99479 2.77665 9.8501 3.0451 9.74159C3.29338 9.6412 3.5724 9.58624 3.87531 9.57797C3.91223 9.59802 3.97797 9.63629 4.08447 9.70724C4.30119 9.85151 4.55098 10.0161 4.82712 10.1963C5.13839 10.399 5.53943 10.5821 6.01856 10.7401C6.50839 10.9019 7.00797 10.9841 7.50385 10.9841C7.99972 10.9841 8.49944 10.9019 8.989 10.7403C9.46854 10.582 9.86944 10.399 10.1811 10.196C10.4637 10.0115 10.7065 9.85165 10.9232 9.70724C11.0297 9.63643 11.0955 9.59802 11.1324 9.57797C11.4354 9.58624 11.7145 9.6412 11.9629 9.74159C12.2312 9.8501 12.459 9.99493 12.6398 10.1716C12.833 10.3604 13.0081 10.595 13.1603 10.8687C13.32 11.1554 13.4487 11.4533 13.5429 11.7538C13.6413 12.0678 13.724 12.4141 13.7888 12.783C13.8544 13.1575 13.8989 13.5094 13.9206 13.8291C13.9429 14.1542 13.9542 14.4943 13.9543 14.8396C13.9542 15.5018 13.7711 16.0018 13.3944 16.368Z" fill="#474747"/>
</svg>
