<svg width="18" height="62" viewBox="0 0 18 62" fill="none" xmlns="http://www.w3.org/2000/svg">
<g clip-path="url(#clip0_1_3)">
<path opacity="0.2" d="M0 12C0 6.34315 0 3.51472 1.75736 1.75736C3.51472 0 6.34315 0 12 0H18V62H12C6.34315 62 3.51472 62 1.75736 60.2426C0 58.4853 0 55.6569 0 50V12Z" fill="url(#paint0_linear_1_3)"/>
<path d="M8 49C6.34315 49 5 50.3431 5 52C5 53.6569 6.34315 55 8 55C9.65685 55 11 53.6569 11 52C11 50.3431 9.65685 49 8 49Z" fill="#F26F22"/>
<path d="M7.764 45.292C6.876 45.292 6.108 45.136 5.46 44.824C4.812 44.512 4.312 44.06 3.96 43.468C3.608 42.868 3.432 42.156 3.432 41.332C3.432 40.516 3.608 39.812 3.96 39.22C4.312 38.628 4.812 38.172 5.46 37.852C6.108 37.524 6.872 37.36 7.752 37.36C8.64 37.36 9.412 37.524 10.068 37.852C10.716 38.172 11.22 38.632 11.58 39.232C11.932 39.824 12.108 40.524 12.108 41.332C12.108 42.156 11.932 42.864 11.58 43.456C11.22 44.048 10.716 44.504 10.068 44.824C9.412 45.136 8.644 45.292 7.764 45.292ZM7.764 43.984C8.788 43.984 9.588 43.76 10.164 43.312C10.74 42.864 11.028 42.204 11.028 41.332C11.028 40.484 10.744 39.828 10.176 39.364C9.6 38.9 8.796 38.668 7.764 38.668C6.732 38.668 5.932 38.9 5.364 39.364C4.796 39.82 4.512 40.476 4.512 41.332C4.512 42.204 4.796 42.864 5.364 43.312C5.932 43.76 6.732 43.984 7.764 43.984ZM12 35.4004H6.888V36.5764H5.952V35.0644L6.264 35.4004H5.304C4.592 35.4004 4.052 35.2204 3.684 34.8604C3.308 34.5004 3.12 33.9724 3.12 33.2764C3.12 33.1084 3.132 32.9324 3.156 32.7484C3.18 32.5644 3.22 32.4124 3.276 32.2924H4.26C4.22 32.3884 4.188 32.5084 4.164 32.6524C4.132 32.7884 4.116 32.9284 4.116 33.0724C4.116 33.3044 4.164 33.5044 4.26 33.6724C4.348 33.8404 4.484 33.9724 4.668 34.0684C4.852 34.1564 5.088 34.2004 5.376 34.2004H6.192L5.952 34.3804V32.5564H6.888V34.1884H12V35.4004ZM12 31.4043H6.888V32.5803H5.952V31.0683L6.264 31.4043H5.304C4.592 31.4043 4.052 31.2243 3.684 30.8643C3.308 30.5043 3.12 29.9763 3.12 29.2803C3.12 29.1123 3.132 28.9363 3.156 28.7523C3.18 28.5683 3.22 28.4163 3.276 28.2963H4.26C4.22 28.3923 4.188 28.5123 4.164 28.6563C4.132 28.7923 4.116 28.9323 4.116 29.0763C4.116 29.3083 4.164 29.5083 4.26 29.6763C4.348 29.8443 4.484 29.9763 4.668 30.0723C4.852 30.1603 5.088 30.2043 5.376 30.2043H6.192L5.952 30.3843V28.5603H6.888V30.1923H12V31.4043ZM12 27.5403H3.168V26.3283H12V27.5403ZM12 24.5807H5.952V23.3687H12V24.5807ZM4.692 24.6767L3.432 24.6768V23.2727H4.692V24.6767ZM12 21.5925H7.404C7.172 21.5925 6.936 21.6045 6.696 21.6285C6.448 21.6445 6.2 21.6645 5.952 21.6885V20.5125L7.224 20.4045V20.5485C6.776 20.3645 6.436 20.0805 6.204 19.6965C5.964 19.3125 5.844 18.8685 5.844 18.3645C5.844 17.6525 6.04 17.1165 6.432 16.7565C6.824 16.3885 7.432 16.2045 8.256 16.2045H12V17.4165H8.328C7.792 17.4165 7.408 17.5245 7.176 17.7405C6.936 17.9485 6.816 18.2685 6.816 18.7005C6.816 19.2125 6.976 19.6205 7.296 19.9245C7.608 20.2285 8.032 20.3805 8.568 20.3805H12V21.5925ZM12.108 11.6832C12.108 12.6592 11.832 13.4272 11.28 13.9872C10.728 14.5472 9.964 14.8272 8.988 14.8272C8.356 14.8272 7.804 14.7072 7.332 14.4672C6.86 14.2192 6.496 13.8792 6.24 13.4472C5.976 13.0072 5.844 12.4992 5.844 11.9232C5.844 11.3552 5.964 10.8792 6.204 10.4952C6.444 10.1112 6.784 9.81919 7.224 9.61919C7.656 9.41919 8.168 9.31919 8.76 9.31919H9.144V13.8792H8.448V10.1472L8.604 10.3512C8.004 10.3512 7.54 10.4872 7.212 10.7592C6.876 11.0232 6.708 11.4072 6.708 11.9112C6.708 12.4712 6.904 12.9032 7.296 13.2072C7.68 13.5112 8.212 13.6632 8.892 13.6632H9.012C9.724 13.6632 10.26 13.4912 10.62 13.1472C10.98 12.7952 11.16 12.2992 11.16 11.6592C11.16 11.3072 11.112 10.9792 11.016 10.6752C10.912 10.3632 10.744 10.0672 10.512 9.78719L11.34 9.39119C11.588 9.67119 11.78 10.0112 11.916 10.4112C12.044 10.8112 12.108 11.2352 12.108 11.6832Z" fill="#2B2A2A"/>
</g>
<defs>
<linearGradient id="paint0_linear_1_3" x1="9" y1="0" x2="9" y2="62" gradientUnits="userSpaceOnUse">
<stop stop-color="#2B2A2A"/>
<stop offset="1" stop-color="#D2D2D2"/>
</linearGradient>
<clipPath id="clip0_1_3">
<rect width="18" height="62" fill="white"/>
</clipPath>
</defs>
</svg>
