<svg width="18" height="62" viewBox="0 0 18 62" fill="none" xmlns="http://www.w3.org/2000/svg">
<g clip-path="url(#clip0_1_7)">
<path opacity="0.2" d="M0 12C0 6.34315 0 3.51472 1.75736 1.75736C3.51472 0 6.34315 0 12 0H18V62H12C6.34315 62 3.51472 62 1.75736 60.2426C0 58.4853 0 55.6569 0 50V12Z" fill="url(#paint0_linear_1_7)"/>
<path d="M8 49C6.34315 49 5 50.3431 5 52C5 53.6569 6.34315 55 8 55C9.65685 55 11 53.6569 11 52C11 50.3431 9.65685 49 8 49Z" fill="#3ECB32"/>
<path d="M7.764 45.292C6.876 45.292 6.108 45.136 5.46 44.824C4.812 44.512 4.312 44.06 3.96 43.468C3.608 42.868 3.432 42.156 3.432 41.332C3.432 40.516 3.608 39.812 3.96 39.22C4.312 38.628 4.812 38.172 5.46 37.852C6.108 37.524 6.872 37.36 7.752 37.36C8.64 37.36 9.412 37.524 10.068 37.852C10.716 38.172 11.22 38.632 11.58 39.232C11.932 39.824 12.108 40.524 12.108 41.332C12.108 42.156 11.932 42.864 11.58 43.456C11.22 44.048 10.716 44.504 10.068 44.824C9.412 45.136 8.644 45.292 7.764 45.292ZM7.764 43.984C8.788 43.984 9.588 43.76 10.164 43.312C10.74 42.864 11.028 42.204 11.028 41.332C11.028 40.484 10.744 39.828 10.176 39.364C9.6 38.9 8.796 38.668 7.764 38.668C6.732 38.668 5.932 38.9 5.364 39.364C4.796 39.82 4.512 40.476 4.512 41.332C4.512 42.204 4.796 42.864 5.364 43.312C5.932 43.76 6.732 43.984 7.764 43.984ZM12 35.7604H7.404C7.172 35.7604 6.936 35.7724 6.696 35.7964C6.448 35.8124 6.2 35.8324 5.952 35.8564V34.6804L7.224 34.5724V34.7164C6.776 34.5324 6.436 34.2484 6.204 33.8644C5.964 33.4804 5.844 33.0364 5.844 32.5324C5.844 31.8204 6.04 31.2844 6.432 30.9244C6.824 30.5564 7.432 30.3724 8.256 30.3724H12V31.5844H8.328C7.792 31.5844 7.408 31.6924 7.176 31.9084C6.936 32.1164 6.816 32.4364 6.816 32.8684C6.816 33.3804 6.976 33.7884 7.296 34.0924C7.608 34.3964 8.032 34.5484 8.568 34.5484H12V35.7604ZM12 28.6472H3.168V27.4352H12V28.6472ZM12 25.6589H5.952V24.4469H12V25.6589ZM4.692 25.7549H3.432V24.3509H4.692V25.7549ZM12 22.6706H7.404C7.172 22.6706 6.936 22.6826 6.696 22.7066C6.448 22.7226 6.2 22.7426 5.952 22.7666V21.5906L7.224 21.4826V21.6266C6.776 21.4426 6.436 21.1586 6.204 20.7746C5.964 20.3906 5.844 19.9466 5.844 19.4426C5.844 18.7306 6.04 18.1946 6.432 17.8346C6.824 17.4666 7.432 17.2826 8.256 17.2826H12V18.4946H8.328C7.792 18.4946 7.408 18.6026 7.176 18.8186C6.936 19.0266 6.816 19.3466 6.816 19.7786C6.816 20.2906 6.976 20.6986 7.296 21.0026C7.608 21.3066 8.032 21.4586 8.568 21.4586H12V22.6706ZM12.108 12.7613C12.108 13.7373 11.832 14.5053 11.28 15.0653C10.728 15.6253 9.964 15.9053 8.988 15.9053C8.356 15.9053 7.804 15.7853 7.332 15.5453C6.86 15.2973 6.496 14.9573 6.24 14.5253C5.976 14.0853 5.844 13.5773 5.844 13.0013C5.844 12.4333 5.964 11.9573 6.204 11.5733C6.444 11.1893 6.784 10.8973 7.224 10.6973C7.656 10.4973 8.168 10.3973 8.76 10.3973H9.144V14.9573H8.448V11.2253L8.604 11.4293C8.004 11.4293 7.54 11.5653 7.212 11.8373C6.876 12.1013 6.708 12.4853 6.708 12.9893C6.708 13.5493 6.904 13.9813 7.296 14.2853C7.68 14.5893 8.212 14.7413 8.892 14.7413H9.012C9.724 14.7413 10.26 14.5693 10.62 14.2253C10.98 13.8733 11.16 13.3773 11.16 12.7373C11.16 12.3853 11.112 12.0573 11.016 11.7533C10.912 11.4413 10.744 11.1453 10.512 10.8653L11.34 10.4693C11.588 10.7493 11.78 11.0893 11.916 11.4893C12.044 11.8893 12.108 12.3133 12.108 12.7613Z" fill="#2B2A2A"/>
</g>
<defs>
<linearGradient id="paint0_linear_1_7" x1="9" y1="0" x2="9" y2="62" gradientUnits="userSpaceOnUse">
<stop stop-color="#2B2A2A"/>
<stop offset="1" stop-color="#D2D2D2"/>
</linearGradient>
<clipPath id="clip0_1_7">
<rect width="18" height="62" fill="white"/>
</clipPath>
</defs>
</svg>
