<svg width="18" height="18" viewBox="0 0 18 18" fill="none" xmlns="http://www.w3.org/2000/svg">
<path d="M6.33789 10.8639C6.33789 11.8959 7.12989 12.7279 8.11389 12.7279H10.1219C10.9779 12.7279 11.6739 11.9999 11.6739 11.1039C11.6739 10.1279 11.2499 9.7839 10.6179 9.5599L7.39389 8.4399C6.76189 8.2159 6.33789 7.8719 6.33789 6.8959C6.33789 5.9999 7.03389 5.2719 7.88989 5.2719H9.89789C10.8819 5.2719 11.6739 6.1039 11.6739 7.1359" stroke="#474747" stroke-width="1.3" stroke-linecap="round" stroke-linejoin="round"/>
<path d="M9 4.20004V13.8" stroke="#474747" stroke-width="1.3" stroke-linecap="round" stroke-linejoin="round"/>
<path d="M11.4 17H6.6C2.6 17 1 15.4 1 11.4V6.6C1 2.6 2.6 1 6.6 1H11.4C15.4 1 17 2.6 17 6.6V11.4C17 15.4 15.4 17 11.4 17Z" stroke="#474747" stroke-width="1.3" stroke-linecap="round" stroke-linejoin="round"/>
</svg>
